<?xml version="1.0" standalone="yes"?>
<svg width="867" height="867">
<path style="fill:#000000; stroke:none;" d="M0 0L0 406L1 406C1 369.485 10.1746 331.476 21.6667 297C62.0305 175.909 155.568 77.3662 274 30C314.579 13.7706 361.011 1 405 1L369 0L287 0L0 0z"/>
<path style="fill:#ff9a47; stroke:none;" d="M405 0.424377C381.485 3.51202 358.25 5.31555 335 10.6512C270.076 25.5505 208.232 55.7977 157 98.4352C113.606 134.549 75.4333 179.49 49.7562 230C-30.5255 387.923 -12.5434 582.931 105.285 718C133.317 750.133 165.971 778.127 202 800.947C242.454 826.569 287.443 845.081 334 856.116C385.3 868.274 439.799 870.582 492 863.718C693.086 837.277 858.026 663.043 866.961 459C869.52 400.542 861.963 342.225 842.308 287C793.099 148.737 672.966 42.6981 530 10.3495C490.613 1.4375 445.365 -4.87567 405 0.424377z"/>
<path style="fill:#000000; stroke:none;" d="M461 0L461 1C493.859 1 527.67 8.88007 559 18.2801C687.249 56.7585 793.299 156.599 840.05 282C854.254 320.1 866 363.061 866 404L867 404L867 0L461 0M409 21.4244C379.185 25.3392 350.222 28.153 321 36.152C257.31 53.5861 198.179 88.2094 150 133.089C113.718 166.886 84.8548 207.797 62.7531 252C42.2791 292.948 29.2817 337.566 23.8449 383C17.6742 434.568 20.6487 487.66 33.8843 538C86.5468 738.296 284.487 869.611 489 842.718C681.258 817.438 837.441 650.57 845.961 456C854.657 257.407 720.012 73.8699 524 30.5756C487.711 22.5602 446.161 16.5451 409 21.4244z"/>
<path style="fill:#ff0000; stroke:none;" d="M348 141L349 142L348 141z"/>
<path style="fill:#fe7600; stroke:none;" d="M181 302C182.213 315.89 190.869 318.062 203 317.999C220.023 317.911 235.474 308.801 253 310.844C262.725 311.978 273.881 313.137 275.292 325C276.463 334.854 268.815 343.899 263.116 351.089C247.441 370.862 224.291 389.701 200.015 397.656C189.26 401.18 169.175 395.338 164.148 408.004C158.614 421.948 170.523 425.324 178.722 432.549C181.896 435.345 182.745 439.797 186.051 442.646C194.103 449.585 211.033 450.711 221 448.405C253.089 440.981 285.465 416.431 305.715 390.999C312.941 381.923 316.704 369.343 324 361C323.643 351.855 326.064 343.341 324.56 334C321.552 315.316 307.7 304.817 295.665 291.87C290.716 286.546 286.077 282.69 294 278C297.043 285.789 303.827 286.768 309.505 291.814C319.878 301.033 323.877 307.89 339 310C338.753 339.823 329.132 379.043 352.211 403.675C355.639 407.333 360.083 409.248 363.741 412.495C367.806 416.102 369.361 422.328 373.568 425.602C380.381 430.905 394.619 428.625 398.543 420.985C404.224 409.923 392.066 398.359 389.475 388C385.289 371.26 387.629 353.909 388.997 337.001C389.556 330.092 389.404 319.917 393 314L392 311L404 310C401.81 337.71 392.918 374.672 413.591 398.141C417.535 402.618 424.186 401.29 429 405L426 406L426 407L430 411L441 411L449 423L447 426L451 422L467 427L468 427L471 425L474 412L477 418L483 404L492 410L495 404L494 401L500 396L507 402L519 406L540.871 404.146L550 399L548 389C543.719 388.662 538.471 388.815 536 385L529 392L527 389C529.885 383.486 538.973 380.508 537.016 373.001C534.295 362.559 521.053 367.422 518.738 358.981C517.546 354.633 519.042 349.346 519.754 345C522.482 328.341 535.454 290.646 508 290C507.584 272.325 484.517 265.732 476.059 282.004C460.941 311.089 475.987 352.803 450 378C450.968 372.182 448.87 365.993 449.015 360C449.259 349.858 451.005 338.96 452.935 329C454.476 321.052 460.923 314.624 458.566 306C456.349 297.886 449.139 296.585 442 297C441.999 284.102 433.492 275.9 420 279C419.93 270.695 416.966 262.81 408 261C412.939 250.033 416.979 238.715 424.579 229.171C430.618 221.587 440.547 216.415 441.816 206C443.45 192.581 435.538 191.523 427.275 184.351C423.535 181.105 422.698 175.704 418.895 172.344C407.96 162.685 396.235 171.328 387 178C389.957 164.309 378.641 164.145 371.588 157.272C368.935 154.687 368.711 150.078 366.362 147.105C362.06 141.659 351.13 139.725 345.004 143.104C335.963 148.092 336.904 159.857 332.489 168C324.121 183.436 312.7 197.395 299 208.335C271.342 230.421 238.601 245.466 206.729 260.362C199.842 263.581 192.41 267.061 185 268.829C178.833 270.301 171.896 270.279 167.228 275.189C155.95 287.053 167.482 301.818 181 302z"/>
<path style="fill:#aa5500; stroke:none;" d="M350 141L350 142L356 142L350 141z"/>
<path style="fill:#ff0000; stroke:none;" d="M356 141L356 142L359 142L356 141M337.333 151.667L337.667 152.333L337.333 151.667z"/>
<path style="fill:#ffffff; stroke:none;" d="M372 158L373 159L372 158z"/>
<path style="fill:#ffff00; stroke:none;" d="M384 165L385 166L384 165M402 168L403 169L402 168z"/>
<path style="fill:#ff0000; stroke:none;" d="M410.667 168.333L411.333 168.667L410.667 168.333z"/>
<path style="fill:#ffff00; stroke:none;" d="M629 174L629 175L634 175L629 174z"/>
<path style="fill:#fe7500; stroke:none;" d="M605 266C585.125 254.97 561.593 268.6 548.758 284.004C527.155 309.929 525.969 354.364 544 382L538 382L538 376L537 376L527 389L529 392L536 385C536.93 389.341 544.076 388.934 548 389L550 399L540.522 403.995L519 406L507 402L500 396L494 401L495 404L492 410L483 404L477 418L474 412C471.63 416.179 469.703 420.236 471 425L468 427L467 427L451 422L447 426L449 423L441 411L430 411L426 407L426 406L429 405L417 401C428.832 418.972 451.88 434.693 474 430C474 446.605 481.754 455.965 489.479 469.999C491.541 473.744 497.423 477.853 497.923 482.011C498.461 486.492 492.595 492.42 489.921 495.575C480.023 507.255 466.172 516.416 452 522C462.858 508.883 468.234 491.223 461.874 475C459.176 468.117 454.343 463.785 450.669 457.7C447.324 452.159 445.938 446.43 440.996 441.799C433.26 434.55 416.773 433.722 407.09 436.758C380.315 445.155 372.323 475.872 381.66 500C384.401 507.084 387.835 513.804 392.219 520C393.736 522.143 396.118 524.869 394.288 527.529C391.851 531.071 385.79 532.13 382 533.421C370.961 537.183 337.979 541.823 337 524C354.43 523.998 360.624 514.118 364.691 498C367.677 486.162 368.747 474.289 354 473C356.046 461.982 354.339 455.035 342 455C342 450.691 343.247 443.98 340.972 440.148C338.478 435.946 333.133 437.217 331.028 441.059C328.947 444.855 330 450.804 330 455L327 454C327.487 450.347 329.436 444.458 327.778 441.059C325.228 435.832 318.764 437.264 316.742 442.094C315.17 445.85 316 451.005 316 455C300.31 453.159 299.34 473.085 301.326 485C302.749 493.543 309.174 497.544 312.11 505C314.671 511.501 314.154 518.474 317.16 525C323.334 538.407 333.41 548.543 342 560C358.095 562.033 370.837 568.781 388 565.711C399.863 563.589 409.835 554.759 421 552.614C424.651 551.913 428.43 554.291 432 554.85C440.042 556.111 448.959 556.322 457 555.023C481.551 551.059 511.677 530.035 521.571 507C525.505 497.841 522.864 489.03 525.51 480.015C526.869 475.385 530.422 471.813 531.711 467C534.2 457.699 530.937 446.829 528 438L532 440C530.837 433.03 525.466 437.249 521.603 433.397C518.243 430.044 518.939 423.186 515.39 419.148C512.005 415.296 508.412 417.534 504.573 415.548C501.261 413.835 501.239 407.224 501 404C519.278 416.071 554.996 422.241 555 390C561.712 395.464 565.863 402.29 574 406.285C597.724 417.935 621.895 404.568 637 386C643.984 396.869 663.764 396.296 666.721 382C670.053 365.893 658.242 346.444 657.089 330C654.347 290.872 659.283 253.21 663.678 214.424C665.163 201.323 660.793 193.127 647 192C646.654 175.343 625.766 167.608 617.641 184.004C605.933 207.632 605 240.069 605 266z"/>
<path style="fill:#ffff00; stroke:none;" d="M327 176L328 177L327 176M639 176L640 177L639 176z"/>
<path style="fill:#ffffff; stroke:none;" d="M619 180L620 181L619 180z"/>
<path style="fill:#ff0000; stroke:none;" d="M431 186L432 187L431 186z"/>
<path style="fill:#7f7f7f; stroke:none;" d="M616 186L617 187L616 186z"/>
<path style="fill:#0000ff; stroke:none;" d="M433 187L434 188L433 187z"/>
<path style="fill:#ff0000; stroke:none;" d="M647.333 187.667L647.667 188.333L647.333 187.667z"/>
<path style="fill:#ffff00; stroke:none;" d="M615 188L616 189L615 188M647.333 189.667L647.667 190.333L647.333 189.667z"/>
<path style="fill:#ffffff; stroke:none;" d="M438 191L439 192L438 191z"/>
<path style="fill:#ff0000; stroke:none;" d="M652.667 192.333L653.333 192.667L652.667 192.333z"/>
<path style="fill:#ff00ff; stroke:none;" d="M315 193L316 194L315 193z"/>
<path style="fill:#ff0000; stroke:none;" d="M655.667 193.333L656.333 193.667L655.667 193.333z"/>
<path style="fill:#007f7f; stroke:none;" d="M440 194L441 195L440 194z"/>
<path style="fill:#ff0000; stroke:none;" d="M662.333 199.667L662.667 200.333L662.333 199.667M610.333 206.667L610.667 207.333L610.333 206.667M441.333 208.667L441.667 209.333L441.333 208.667M609.333 213.667L609.667 214.333L609.333 213.667z"/>
<path style="fill:#ffff00; stroke:none;" d="M287 217L288 218L287 217z"/>
<path style="fill:#ffffff; stroke:none;" d="M435 217L436 218L435 217z"/>
<path style="fill:#00ff00; stroke:none;" d="M282 220L283 221L282 220z"/>
<path style="fill:#7f0000; stroke:none;" d="M662.333 221.667L662.667 222.333L662.333 221.667z"/>
<path style="fill:#ffffff; stroke:none;" d="M428 224L429 225L428 224z"/>
<path style="fill:#ff0000; stroke:none;" d="M607 227L607 230L608 230L607 227z"/>
<path style="fill:#ffff00; stroke:none;" d="M661 228L661 231L662 231L661 228z"/>
<path style="fill:#ffffff; stroke:none;" d="M422 231L423 232L422 231M661.333 232.667L661.667 233.333L661.333 232.667M357 234L358 235L357 234z"/>
<path style="fill:#ff0000; stroke:none;" d="M357.333 235.667L357.667 236.333L357.333 235.667z"/>
<path style="fill:#007f7f; stroke:none;" d="M355 236L356 237L355 236z"/>
<path style="fill:#000000; stroke:none;" d="M356 236L345 247L341 250C335.11 250.218 325.808 257.554 322 262C328.27 262.129 343.236 267.43 348.262 262.397C351.513 259.14 351.934 251.289 353.424 247C354.642 243.495 356.657 239.685 356 236z"/>
<path style="fill:#ffffff; stroke:none;" d="M419 236L420 237L419 236z"/>
<path style="fill:#aa5500; stroke:none;" d="M606.333 239.667L606.667 240.333L606.333 239.667z"/>
<path style="fill:#007f7f; stroke:none;" d="M244 242L245 243L244 242z"/>
<path style="fill:#0000ff; stroke:none;" d="M241 243L242 244L241 243z"/>
<path style="fill:#ff0000; stroke:none;" d="M239.667 244.333L240.333 244.667L239.667 244.333z"/>
<path style="fill:#ffffff; stroke:none;" d="M659.333 244.667L659.667 245.333L659.333 244.667z"/>
<path style="fill:#00ff00; stroke:none;" d="M353 246L354 247L353 246z"/>
<path style="fill:#ffffff; stroke:none;" d="M605 246L605 249L606 249L605 246M413 247L414 248L413 247z"/>
<path style="fill:#7f0000; stroke:none;" d="M223.667 252.333L224.333 252.667L223.667 252.333z"/>
<path style="fill:#7f7f7f; stroke:none;" d="M220 254L221 255L220 254M331 254L332 255L331 254z"/>
<path style="fill:#bf3f3f; stroke:none;" d="M351.333 254.667L351.667 255.333L351.333 254.667z"/>
<path style="fill:#ff0000; stroke:none;" d="M658 254L658 257L659 257L658 254z"/>
<path style="fill:#fe7500; stroke:none;" d="M709 323L708 323C704.127 306.741 712.573 285.065 689 285C688.986 267.042 669.343 260.713 660.905 278.09C652.259 295.896 656.793 331.936 667.504 348.039C672.183 355.075 678.385 358.228 684.218 363.785C695.787 374.803 703.511 383.496 721 381C721 414.587 714.792 444.792 706 477L705 477C703.561 465.866 697.422 466.207 691.678 458.606C689.418 455.616 690.291 450.534 689.525 447C687.639 438.302 681.236 435.171 673 435C671.192 420.767 653.068 408.468 644.314 426C638.759 437.126 647.36 455.06 640.322 464.725C633.934 473.499 618.664 469.673 613.995 481.09C609.553 491.948 618.166 504.246 630 501C631.769 508.177 632.79 515.007 641 517C642.102 530.964 643.209 548.582 661 549C661.494 552.173 663.734 555.836 663.378 559C661.894 572.199 643.424 584.158 638 596L629 595C628.815 586.056 626.165 580.318 617 578C618.793 575.682 620.856 571.612 623.808 570.649C632.043 567.961 642.782 577.902 647.196 563.996C652.116 548.496 640.451 543.874 631.549 535.415C628.657 532.667 627.445 528.379 624.535 525.464C616.271 517.185 604.294 516.604 594.17 521.786C582.99 527.508 572.796 540.754 567.742 552.039C566.261 555.344 564.723 569.558 561.725 570.539C558.112 571.721 550.966 559.156 547.985 556.927C537.954 549.427 523.964 549.109 513 554.824C506.498 558.213 502.662 564.245 496.83 568.258C489.746 573.135 483.367 571.906 478.978 581C475.69 587.811 482.075 602.609 477 606C474.159 586.62 448.428 585.925 437 577L436 577C430.953 580.184 418.946 585.15 413 584.778C408.768 584.513 405.439 580.644 401 580.2C389.952 579.094 383.79 590.153 384.379 600C384.717 605.648 386.288 611.37 387 617L386 617C381.696 609.245 369.204 596.24 361 593L362 590L353 585C347.817 584.397 343.217 581.192 338 580.764C332.948 580.35 326.982 582.304 322.093 580.587C313.839 577.689 303.84 566.836 297 580C283.899 570.771 275.569 554.571 260 549.181C245.68 544.224 237.516 551.805 224.17 553.772C219.95 554.395 215.306 552.188 211 552C210.969 541.24 202.028 530.091 190.289 536.849C183.923 540.513 180.919 547.553 174 551C174 542.795 174.689 519.003 185.805 516.767C193.592 515.2 201.846 526.271 208.276 513.907C215.609 499.806 202.59 493.789 194.278 486.451C191.58 484.07 190.992 480.271 188.765 477.519C183.294 470.754 174.199 469.169 166 469C172.589 460.638 187.484 448.956 176.697 437.214C173.273 433.487 167.842 434.553 164.589 431.397C162.176 429.057 162.471 424.864 160.86 422.019C157.248 415.636 148.565 414.399 142 416.263C129.675 419.763 121.198 433.548 113.79 443C85.2245 479.45 81.4418 540.661 97.9259 583C110.783 616.022 133.261 642.845 159.17 666.464C215.759 718.05 288.401 744.489 364 752.169C388.584 754.667 413.353 754.237 438 753.039C444.183 752.738 459.198 754.199 463 749L455 749L455 748L460 746C455.278 745.846 450.215 743.449 447 748L449 747L449 748L443 750C439.254 744.805 428.84 747 423 747C403.143 747 381.694 745.239 362 747L352 747L351 743L350 743L349 746L319.285 738.258L304 736L303 733L302 736L299 736L294 728L297 725L293 725L295 721L247.004 706.365L215 694L216 692L171 668L172 666C160.661 661.05 149.839 649.119 141.745 639.923C138.631 636.384 134.517 632.869 134 628C129.411 625.654 125.34 619.983 124 615C117.815 610.302 109.016 596.852 109 589C102.055 581.308 96.3495 562.172 98 552C90.3445 541.897 95.9987 520.807 96 509L98 510C96.9006 483.993 108.732 457.916 125.899 438.572C135.113 428.188 151.512 410.845 158 433L156 433L157 436L154 440L142 450L145 452L142 455L142 452C134.728 454.466 127.47 468.66 129 476L126 475L128 478L124 478L125 485L125 486C120.074 487.713 119.535 492.472 121 497L118 496L118 510L118 511L118 512L118 515C112.789 518.376 114.973 531.344 115.001 537C115.091 555.718 121.927 575.812 131.054 592C134.022 597.264 137.997 606.059 144 608L144 609L142 610L155 623L158 627L157 629L172 644C175.209 643.885 177.834 647.546 180.333 649.5C186.668 654.452 193.617 661 202 661L202 662L200 663L219 672L221 667C206.042 657.936 190.401 650.114 177.514 637.996C160.556 622.051 149.107 598.803 142 577C155.1 588.376 165.041 601.993 184 602C189.92 602.002 196.633 602.857 200 597L205 598C205 613.381 207 629.801 217.519 641.924C221.354 646.345 226.63 649.037 230.83 653.04C237.945 659.82 242.633 666.666 253 668.536C264.196 670.555 271.81 664.876 282 663L296 644L297 644C297.01 658.942 296.287 680.933 316 681C317.55 696.466 328.305 697.232 341 696C351.385 680.75 346.199 657.588 343.729 640C343.248 636.573 343.491 625.968 349.96 628.306C366.509 634.289 345.324 663.073 364.001 670.258C366.789 671.33 370.071 670.998 373 671C373.403 686.356 393.487 694.966 401 679C404.208 680.497 409.82 681.123 412.262 683.6C415.637 687.021 415.135 692.359 419.478 695.468C428.906 702.216 442.374 697.402 444.532 686C448.151 666.881 433.468 647.631 443 630L445 630C446.837 635.908 450.266 644.087 456 647L448 627L452 627C453.19 633.618 459.751 641.697 455 648C456.184 653.991 459.771 662.637 465.043 666.106C467.674 667.838 471.185 667.603 473.606 669.603C477.993 673.226 477.645 679.565 483.04 682.721C501.128 693.305 506 667.726 506 656C514.25 664.798 521.396 673.83 534 676C526.112 682.035 516.218 684.261 507 687.428C485.707 694.744 463.491 700.353 441 702.295C391.833 706.541 344.2 707.119 296 694.08C270.689 687.233 247.609 676.377 223 668L220 671C232.065 685.78 262.545 690.997 280.09 696.196C286.797 698.184 295.452 698.569 301 703C316.942 701.548 335.101 708.913 351 710.816C374.756 713.658 401.173 712.822 425 710.907C448.81 708.993 472.83 704.268 496 698.299C506.937 695.482 517.724 688.991 529 688L528 686C539.185 684.487 559.086 673.852 567 666L568 666L572 669C570.287 661.213 588.297 652.9 593.985 648.169C610.514 634.421 624.523 620.172 638.986 604.271C643.803 598.975 653.173 590.419 653 583C663.943 579.949 665.285 563.946 675 559C674.981 553.427 679.959 546.69 684 543L689 531L692 532L696 515L699 514L698 511C705.046 506.929 709.502 488.748 711 481L716 482C710.827 471.645 719.325 455.944 721.64 445C722.594 440.49 721.646 434.336 725 431L725 418L720 420L726 417L723 404C730.947 400.816 730.425 374.312 725 369L727 374L706 374L706 376L703 371L695 366L693 368L692 368L689 366L692 360L704 360L704 359C668.244 359 660.652 319.634 664.129 290.039C664.723 284.98 668.509 280.732 669 276C675.202 274.543 677.978 274.33 684 277C682.189 283.342 680.774 301.434 686 306C684.759 309.394 683.672 314.073 688 315L688 316L685 316C686.275 321.942 688.563 333.122 696 333L692 329L709 331L709 332L707 332L707 333C714.388 330.889 716.573 321.193 716.846 314.286C717.219 304.904 718.556 295.43 717.911 286C717.538 280.567 715.222 272.768 717.603 267.576C726.814 247.495 741.193 273.881 742 284L747 290L746 290L743 286L744 297L745 297L745 294L748 293L749 308C752.523 303.35 751.84 287.408 747 284L748 279L757 284L754 285L754 286L761 286L761 294L758 295L762 308L761 312L762 312L764 307L767 308C764.625 298.138 764.489 287.525 758.211 279.015C753.829 273.075 746.856 271.486 742.92 265C736.403 254.262 721.899 249.309 713.483 261.429C708.039 269.268 712.376 278.675 712.946 287.015C713.778 299.188 709.758 311.075 709 323z"/>
<path style="fill:#ffffff; stroke:none;" d="M731 254L732 255L731 254M720 255L721 256L720 255M733 255L734 256L733 255z"/>
<path style="fill:#00ffff; stroke:none;" d="M350 256L351 257L350 256z"/>
<path style="fill:#ff0000; stroke:none;" d="M714.333 259.667L714.667 260.333L714.333 259.667z"/>
<path style="fill:#ff7600; stroke:none;" d="M707 333L707 332L709 332L709 331L692 329L696 333C690.786 331.761 682.591 320.335 688 316L688 315L685 315L686 306C681.063 299.485 682.434 284.696 684 277C678.535 273.679 674.83 273.918 669 276C669.127 279.557 664.635 283.876 664 288C660.57 310.295 664.272 349.571 689 358.5C693.32 360.06 699.426 359 704 359L704 360L692 360L689 366L695 366L703 371L706 376L706 374L727 374L725 369C730.004 375.957 731.156 399.013 723 404L726 417L720 420L725 418L725 431C721.415 433.706 722.526 439.799 721.64 444C719.436 454.444 709.827 472.643 716 482L711 481C708.545 490.116 704.922 504.401 698 511L699 514L696 515L692 532L689 531L684 543C679.529 545.751 674.072 553.745 675 559L653 583C651.231 591.549 642.365 599.685 636.604 606C622.905 621.018 609.874 634.605 593.985 647.361C588.296 651.929 569.585 661.453 572 669L568 666L567 666C556.434 673.529 540.729 683.047 528 686L529 688C517.417 688.531 506.183 695.419 495 698.299C471.753 704.286 446.979 709.794 423 710.96C399.872 712.084 373.926 714.384 351 710.675C341.072 709.069 330.85 707.823 321 705.78C314.769 704.488 307.288 701.69 301 703C296.679 697.787 285.442 697.706 279.17 695.637C259.73 689.226 235.833 684.775 220 671L222 667L219 672L200 663L202 662L202 661L172 644C169.263 638.358 162.644 631.703 157 629L158 627L155 623C151.249 621.291 143.217 613.147 144 609L144 608C138.483 605.042 134.706 597.333 131.625 592C122.362 575.969 115.226 555.651 115.004 537C114.928 530.598 113.453 519.865 118 515L116 513L116 512L118 512L118 511L118 510L118 496L121 497C119.918 492.295 120.62 488.527 125 486L125 485L124 478L128 478L126 475L129 476C128.081 468.288 135.292 455.778 142 452L142 455L145 452L142 450L154 440L157 436L156 433L158 433C153.085 409.577 133.748 428.578 125.156 438.572C108.592 457.838 95.9745 484.298 98 510L96 509C95.9934 518.951 89.6694 544.722 98 552C95.9797 560.817 101.405 583.431 109 589C108.586 596.406 117.266 611.546 124 615C124.764 620.188 128.838 626.412 134 628C134.118 633.072 137.858 636.217 141.036 639.923C148.482 648.602 160.736 662.922 172 666L171 668C186.318 674.185 198.911 689.87 216 692L215 694C226.27 696.003 237.126 703.312 248.001 707.069C271.441 715.165 295.774 721.527 320 726.64C354.281 733.875 389.259 731 424 731L423 733L459 729L459 728L456 728L456 727L498 721L498 720L496 719C531.52 710.857 569.352 693.424 597.964 670.769C606.621 663.914 615.645 657.089 623.335 649.149C625.692 646.715 630.524 641.067 634 642L635 642L636 636L643 636L644 636L641 632C653.501 617.296 672.841 601.233 680 583L684 584L688 570L692 570L694 565L716 521L720 521L720 520L717 520L721 511L724 512L726 500L729 500C727.041 495.044 730.335 490.166 733 486C730.832 482.476 734.42 475.739 737 473L737 472L740 468L740 467C736.37 462.982 739.959 452.932 743 449L747 411L750 410L750 407C745.601 402.691 747.079 397.213 751 393C749.394 386.929 746.244 377.725 753 374L752 371L749 372L743 286L746 290L747 290C746.696 286.171 745.795 284.827 742 284C741.685 276.691 739.275 268.196 733.661 263.093C728.566 258.464 720.155 260.744 717.488 267.005C715.387 271.935 717.105 279.836 717.714 285C718.318 290.114 717 294.359 716.715 299.286C716.091 310.038 719.4 327.231 707 333z"/>
<path style="fill:#7f0000; stroke:none;" d="M325 262L325 263L329 263L325 262M585 262L585 263L590 263L585 262z"/>
<path style="fill:#7f7f00; stroke:none;" d="M590.667 262.333L591.333 262.667L590.667 262.333z"/>
<path style="fill:#7f0000; stroke:none;" d="M592.667 262.333L593.333 262.667L592.667 262.333z"/>
<path style="fill:#ffff00; stroke:none;" d="M657 262L657 265L658 265L657 262z"/>
<path style="fill:#ff00ff; stroke:none;" d="M348 263L349 264L348 263z"/>
<path style="fill:#00ffff; stroke:none;" d="M603 264L604 265L603 264z"/>
<path style="fill:#7f3f3f; stroke:none;" d="M604.333 264.667L604.667 265.333L604.333 264.667z"/>
<path style="fill:#ffffff; stroke:none;" d="M657.333 265.667L657.667 266.333L657.333 265.667z"/>
<path style="fill:#00ffff; stroke:none;" d="M417 267L418 268L417 267z"/>
<path style="fill:#ff0000; stroke:none;" d="M673.667 267.333L674.333 267.667L673.667 267.333z"/>
<path style="fill:#ffff00; stroke:none;" d="M418 268L419 269L418 268z"/>
<path style="fill:#00ff00; stroke:none;" d="M566 268L567 269L566 268z"/>
<path style="fill:#ff0000; stroke:none;" d="M710 268L710 271L711 271L710 268z"/>
<path style="fill:#ffffff; stroke:none;" d="M181 269L182 270L181 269z"/>
<path style="fill:#7f0000; stroke:none;" d="M175.667 270.333L176.333 270.667L175.667 270.333z"/>
<path style="fill:#ff00ff; stroke:none;" d="M562 271L563 272L562 271z"/>
<path style="fill:#ff0000; stroke:none;" d="M665.667 271.333L666.333 271.667L665.667 271.333z"/>
<path style="fill:#ffff00; stroke:none;" d="M492.667 272.333L493.333 272.667L492.667 272.333z"/>
<path style="fill:#ffffff; stroke:none;" d="M494 272L495 273L494 272z"/>
<path style="fill:#7f7f7f; stroke:none;" d="M750 272L751 273L750 272z"/>
<path style="fill:#ff00ff; stroke:none;" d="M687 274L688 275L687 274z"/>
<path style="fill:#ffff00; stroke:none;" d="M557 275L558 276L557 275z"/>
<path style="fill:#ff00ff; stroke:none;" d="M503 277L504 278L503 277z"/>
<path style="fill:#7f7f7f; stroke:none;" d="M555 277L556 278L555 277z"/>
<path style="fill:#ff0000; stroke:none;" d="M292.667 278.333L293.333 278.667L292.667 278.333z"/>
<path style="fill:#aa5555; stroke:none;" d="M420.667 278.333L421.333 278.667L420.667 278.333z"/>
<path style="fill:#ffff00; stroke:none;" d="M431 279L432 280L431 279z"/>
<path style="fill:#fe7600; stroke:none;" d="M748 279L747 284C751.526 288.68 752.011 302.352 749 308L748 293L745 294C741.998 310.169 744.685 326.128 746.896 342.039C748.277 351.98 747.532 362.006 749 372L753 374C746.038 376.311 749.069 387.703 751 393C746.643 396.1 745.117 403.834 750 407L750 410L747 411L743 449C739.553 451.951 735.71 464.231 740 467L740 468C737.719 468.671 734.926 469.634 737 472L737 473C733.969 475.131 730.345 482.876 733 486C729.818 489.695 726.18 495.428 729 500L726 500L724 512L721 511C720.169 514.157 715.336 519.435 720 520L720 521L716 521L701.7 550.003L694 565L692 570L688 570L684 584L680 583L641 632L644 636L643 636C640.836 632.75 638.902 634.073 636 636L635 642L634 642L633 640L632 640C626.338 647.729 617.212 653.834 610.015 660.13C576.957 689.048 537.316 705.789 496 719L498 720L498 721L456 727L456 728L459 728L459 729L423 733L424 731C399.618 731 374.203 734.154 350 730.791C340.234 729.434 329.602 728.703 320 726.41C311.517 724.384 301.675 719.964 293 722L293 725L297 725L294 728L299 736L302 736L303 733L304 736L318.833 738.667L349 746L350 743L351 743L352 747L362 747C381.536 746.573 401.419 747.008 421 747C427.896 746.997 437.688 744.985 443 750L449 747L447 748L447 747L460 746L455 748L455 749C475.562 749.228 493.669 745.959 514 741.235C520.443 739.738 532.874 738.444 537 733C546.361 734.5 560.583 725.876 568.985 721.777C597.738 707.753 623.168 690.474 646.651 668.781C653.903 662.081 669.391 650.902 671 641C677.071 638.167 680.775 632.456 684.989 627.424C694.944 615.539 703.712 602.8 712.424 590C754.093 528.784 771.353 459.07 771.001 386C770.913 367.816 767.899 350.081 767.104 332C766.737 323.642 770.571 314.361 765 307L764 307L762 312L761 312L762 308L758 295L761 294L761 286L754 286L754 285L757 284L748 279z"/>
<path style="fill:#ffffff; stroke:none;" d="M288 281L289 282L288 281M163 282L164 283L163 282M689 282L690 283L689 282z"/>
<path style="fill:#00ffff; stroke:none;" d="M711.333 282.667L711.667 283.333L711.333 282.667z"/>
<path style="fill:#ff3f00; stroke:none;" d="M712 282L712 290L713 290L712 282z"/>
<path style="fill:#007f7f; stroke:none;" d="M760 282L761 283L760 282z"/>
<path style="fill:#ffff00; stroke:none;" d="M475 283L476 284L475 283M689.333 283.667L689.667 284.333L689.333 283.667M548 284L549 285L548 284z"/>
<path style="fill:#7f0000; stroke:none;" d="M697.667 285.333L698.333 285.667L697.667 285.333z"/>
<path style="fill:#007f7f; stroke:none;" d="M700 286L701 287L700 286z"/>
<path style="fill:#ff0000; stroke:none;" d="M508 289L508 290L512 290L508 289z"/>
<path style="fill:#00ffff; stroke:none;" d="M514 290L515 291L514 290z"/>
<path style="fill:#ff7f7f; stroke:none;" d="M712.333 290.667L712.667 291.333L712.333 290.667z"/>
<path style="fill:#ffff00; stroke:none;" d="M442 291L442 295L443 295L442 291z"/>
<path style="fill:#7f7f7f; stroke:none;" d="M763 291L764 292L763 291M296 293L297 294L296 293z"/>
<path style="fill:#ff0000; stroke:none;" d="M712.333 293.667L712.667 294.333L712.333 293.667z"/>
<path style="fill:#ffffff; stroke:none;" d="M764 293L765 294L764 293M442.333 295.667L442.667 296.333L442.333 295.667z"/>
<path style="fill:#ffff00; stroke:none;" d="M541 295L542 296L541 295z"/>
<path style="fill:#ff0000; stroke:none;" d="M706.333 295.667L706.667 296.333L706.333 295.667M444.667 296.333L445.333 296.667L444.667 296.333z"/>
<path style="fill:#ffffff; stroke:none;" d="M301 297L302 298L301 297M302 298L303 299L302 298z"/>
<path style="fill:#7f0000; stroke:none;" d="M765.333 298.667L765.667 299.333L765.333 298.667z"/>
<path style="fill:#ffffff; stroke:none;" d="M524 299L525 300L524 299z"/>
<path style="fill:#ff0000; stroke:none;" d="M657 299L657 310L658 310L657 299z"/>
<path style="fill:#ff00ff; stroke:none;" d="M455 300L456 301L455 300z"/>
<path style="fill:#ffff00; stroke:none;" d="M524 300L525 301L524 300z"/>
<path style="fill:#7f7f7f; stroke:none;" d="M305 301L306 302L305 301z"/>
<path style="fill:#ffffff; stroke:none;" d="M456 301L457 302L456 301M538 301L539 302L538 301M656 301L656 309L657 309L656 301z"/>
<path style="fill:#aa5500; stroke:none;" d="M706 301L706 313L707 313L706 301z"/>
<path style="fill:#ff0000; stroke:none;" d="M766.333 301.667L766.667 302.333L766.333 301.667z"/>
<path style="fill:#ffff00; stroke:none;" d="M180 302L181 303L180 302z"/>
<path style="fill:#ffffff; stroke:none;" d="M457 302L458 303L457 302z"/>
<path style="fill:#ffff00; stroke:none;" d="M766 303L767 304L766 303z"/>
<path style="fill:#ff0000; stroke:none;" d="M320.667 304.333L321.333 304.667L320.667 304.333z"/>
<path style="fill:#7f0000; stroke:none;" d="M525 304L525 308L526 308L525 304M766 304L766 307L767 307L766 304z"/>
<path style="fill:#ffffff; stroke:none;" d="M309 305L310 306L309 305M181 306L182 307L181 306M310 306L311 307L310 306z"/>
<path style="fill:#aa0000; stroke:none;" d="M459 306L459 314L460 314L459 306z"/>
<path style="fill:#ffffff; stroke:none;" d="M470 306L471 307L470 306z"/>
<path style="fill:#ff0000; stroke:none;" d="M536.333 306.667L536.667 307.333L536.333 306.667z"/>
<path style="fill:#00ffff; stroke:none;" d="M711 306L712 307L711 306z"/>
<path style="fill:#0000ff; stroke:none;" d="M326 307L327 308L326 307z"/>
<path style="fill:#ffff00; stroke:none;" d="M327.667 307.333L328.333 307.667L327.667 307.333z"/>
<path style="fill:#ffffff; stroke:none;" d="M711 307L712 308L711 307z"/>
<path style="fill:#7f0000; stroke:none;" d="M331.667 308.333L332.333 308.667L331.667 308.333z"/>
<path style="fill:#ff0000; stroke:none;" d="M469 308L469 312L470 312L469 308M525 308L525 311L526 311L525 308z"/>
<path style="fill:#ffffff; stroke:none;" d="M767 308L767 311L768 311L767 308z"/>
<path style="fill:#ff0000; stroke:none;" d="M182.333 309.667L182.667 310.333L182.333 309.667z"/>
<path style="fill:#7f7f00; stroke:none;" d="M242.667 310.333L243.333 310.667L242.667 310.333z"/>
<path style="fill:#ffff00; stroke:none;" d="M244 310L244 311L251 311L244 310z"/>
<path style="fill:#ffffff; stroke:none;" d="M313 310L314 311L313 310z"/>
<path style="fill:#aa0000; stroke:none;" d="M232 311L232 312L235 312L232 311z"/>
<path style="fill:#00ffff; stroke:none;" d="M236 311L237 312L236 311M258 311L259 312L258 311z"/>
<path style="fill:#aa5500; stroke:none;" d="M392.333 311.667L392.667 312.333L392.333 311.667z"/>
<path style="fill:#007f7f; stroke:none;" d="M267 313L268 314L267 313z"/>
<path style="fill:#aa5500; stroke:none;" d="M469 313L469 317L470 317L469 313z"/>
<path style="fill:#000000; stroke:none;" d="M584 341L584 356C593.928 350.594 598.101 346 610 346L605 313C597.16 315.471 591.644 322.777 588.25 330C586.903 332.866 586.296 339.489 584 341z"/>
<path style="fill:#ffff00; stroke:none;" d="M220 314L221 315L220 314z"/>
<path style="fill:#ffffff; stroke:none;" d="M222 314L223 315L222 314z"/>
<path style="fill:#aa5500; stroke:none;" d="M391 314L391 317L392 317L391 314z"/>
<path style="fill:#00ff00; stroke:none;" d="M392 314L393 315L392 314z"/>
<path style="fill:#ffff00; stroke:none;" d="M524.333 314.667L524.667 315.333L524.333 314.667z"/>
<path style="fill:#0000ff; stroke:none;" d="M710 314L711 315L710 314z"/>
<path style="fill:#7f7f7f; stroke:none;" d="M187 315L188 316L187 315z"/>
<path style="fill:#7f007f; stroke:none;" d="M216 315L217 316L216 315z"/>
<path style="fill:#0000ff; stroke:none;" d="M217 315L218 316L217 315z"/>
<path style="fill:#7f007f; stroke:none;" d="M599 315L600 316L599 315z"/>
<path style="fill:#ff0000; stroke:none;" d="M213.667 316.333L214.333 316.667L213.667 316.333z"/>
<path style="fill:#ffffff; stroke:none;" d="M605.333 316.667L605.667 317.333L605.333 316.667z"/>
<path style="fill:#aa0000; stroke:none;" d="M658.333 316.667L658.667 317.333L658.333 316.667z"/>
<path style="fill:#0000ff; stroke:none;" d="M710 316L711 317L710 316z"/>
<path style="fill:#ffffff; stroke:none;" d="M210 317L211 318L210 317z"/>
<path style="fill:#00ffff; stroke:none;" d="M338 317L339 318L338 317z"/>
<path style="fill:#7f7f7f; stroke:none;" d="M597 317L598 318L597 317z"/>
<path style="fill:#ff0000; stroke:none;" d="M707 317L707 320L708 320L707 317z"/>
<path style="fill:#00ffff; stroke:none;" d="M194.667 318.333L195.333 318.667L194.667 318.333z"/>
<path style="fill:#ffff00; stroke:none;" d="M196 318L196 319L201 319L196 318M468.333 320.667L468.667 321.333L468.333 320.667z"/>
<path style="fill:#7f7f7f; stroke:none;" d="M593 321L594 322L593 321z"/>
<path style="fill:#aa5500; stroke:none;" d="M402.333 322.667L402.667 323.333L402.333 322.667z"/>
<path style="fill:#ffffff; stroke:none;" d="M390.333 323.667L390.667 324.333L390.333 323.667z"/>
<path style="fill:#7f0000; stroke:none;" d="M606.333 323.667L606.667 324.333L606.333 323.667M707 323L708 324L707 323z"/>
<path style="fill:#ff0000; stroke:none;" d="M337 324L337 327L338 327L337 324z"/>
<path style="fill:#7f7f7f; stroke:none;" d="M707 324L708 325L707 324z"/>
<path style="fill:#ff0000; stroke:none;" d="M275 325L275 329L276 329L275 325z"/>
<path style="fill:#7f7f7f; stroke:none;" d="M453.333 325.667L453.667 326.333L453.333 325.667z"/>
<path style="fill:#7f7f00; stroke:none;" d="M522.333 325.667L522.667 326.333L522.333 325.667z"/>
<path style="fill:#ffff00; stroke:none;" d="M337.333 327.667L337.667 328.333L337.333 327.667z"/>
<path style="fill:#00ff00; stroke:none;" d="M401 327L402 328L401 327z"/>
<path style="fill:#ff0000; stroke:none;" d="M606.333 327.667L606.667 328.333L606.333 327.667z"/>
<path style="fill:#ffff00; stroke:none;" d="M401 328L402 329L401 328z"/>
<path style="fill:#ffffff; stroke:none;" d="M767 329L767 334L768 334L767 329z"/>
<path style="fill:#7f7f00; stroke:none;" d="M587.333 330.667L587.667 331.333L587.333 330.667z"/>
<path style="fill:#ff0000; stroke:none;" d="M452.333 331.667L452.667 332.333L452.333 331.667M607 331L607 334L608 334L607 331z"/>
<path style="fill:#7f0000; stroke:none;" d="M389.333 332.667L389.667 333.333L389.333 332.667z"/>
<path style="fill:#ffff00; stroke:none;" d="M657.333 332.667L657.667 333.333L657.333 332.667z"/>
<path style="fill:#ff0000; stroke:none;" d="M389.333 334.667L389.667 335.333L389.333 334.667z"/>
<path style="fill:#0000ff; stroke:none;" d="M467.333 334.667L467.667 335.333L467.333 334.667z"/>
<path style="fill:#ffffff; stroke:none;" d="M586 334L587 335L586 334z"/>
<path style="fill:#00ffff; stroke:none;" d="M521 335L522 336L521 335z"/>
<path style="fill:#7f007f; stroke:none;" d="M467 336L468 337L467 336z"/>
<path style="fill:#00ff00; stroke:none;" d="M521 336L522 337L521 336z"/>
<path style="fill:#ffffff; stroke:none;" d="M608 337L609 338L608 337z"/>
<path style="fill:#00ffff; stroke:none;" d="M451 338L452 339L451 338z"/>
<path style="fill:#ffffff; stroke:none;" d="M325 340L326 341L325 340z"/>
<path style="fill:#7f7f7f; stroke:none;" d="M325 341L325 344L326 344L325 341z"/>
<path style="fill:#ffff00; stroke:none;" d="M388 341L388 344L389 344L388 341z"/>
<path style="fill:#ffffff; stroke:none;" d="M609 341L610 342L609 341z"/>
<path style="fill:#bf7f3f; stroke:none;" d="M658 342L658 345L659 345L658 342z"/>
<path style="fill:#ffff00; stroke:none;" d="M665 343L666 344L665 343z"/>
<path style="fill:#ffffff; stroke:none;" d="M268 344L269 345L268 344M388.333 344.667L388.667 345.333L388.333 344.667z"/>
<path style="fill:#ff0000; stroke:none;" d="M399 344L399 352L400 352L399 344z"/>
<path style="fill:#00ffff; stroke:none;" d="M584 344L585 345L584 344z"/>
<path style="fill:#aa5500; stroke:none;" d="M610.333 344.667L610.667 345.333L610.333 344.667z"/>
<path style="fill:#ffffff; stroke:none;" d="M768 344L769 345L768 344z"/>
<path style="fill:#7f7f00; stroke:none;" d="M768.333 345.667L768.667 346.333L768.333 345.667M532.333 346.667L532.667 347.333L532.333 346.667z"/>
<path style="fill:#ffffff; stroke:none;" d="M597 346L598 347L597 346z"/>
<path style="fill:#ffff00; stroke:none;" d="M608 346L609 347L608 346z"/>
<path style="fill:#00ffff; stroke:none;" d="M609 346L610 347L609 346z"/>
<path style="fill:#7f7f7f; stroke:none;" d="M325 347L326 348L325 347z"/>
<path style="fill:#ff0000; stroke:none;" d="M519.333 347.667L519.667 348.333L519.333 347.667z"/>
<path style="fill:#ffffff; stroke:none;" d="M325 348L326 349L325 348z"/>
<path style="fill:#ff0000; stroke:none;" d="M532.333 349.667L532.667 350.333L532.333 349.667M769 349L769 354L770 354L769 349z"/>
<path style="fill:#7f7f7f; stroke:none;" d="M387 351L388 352L387 351z"/>
<path style="fill:#ff0000; stroke:none;" d="M400 352L399 354L401 354L400 352z"/>
<path style="fill:#ffff00; stroke:none;" d="M583 352L583 356L584 356L583 352z"/>
<path style="fill:#ffffff; stroke:none;" d="M261 353L262 354L261 353z"/>
<path style="fill:#ff5555; stroke:none;" d="M518 353L518 359L519 359L518 353z"/>
<path style="fill:#7f0000; stroke:none;" d="M449 354L449 358L450 358L449 354z"/>
<path style="fill:#ffff00; stroke:none;" d="M661.333 354.667L661.667 355.333L661.333 354.667z"/>
<path style="fill:#ffffff; stroke:none;" d="M324 355L325 356L324 355z"/>
<path style="fill:#7f7f00; stroke:none;" d="M769.333 356.667L769.667 357.333L769.333 356.667z"/>
<path style="fill:#0000ff; stroke:none;" d="M400 358L401 359L400 358z"/>
<path style="fill:#ff0000; stroke:none;" d="M449 358L449 366L450 366L449 358z"/>
<path style="fill:#ffffff; stroke:none;" d="M662 358L663 359L662 358z"/>
<path style="fill:#ff00ff; stroke:none;" d="M256 359L257 360L256 359z"/>
<path style="fill:#00ff00; stroke:none;" d="M533 359L534 360L533 359z"/>
<path style="fill:#00ffff; stroke:none;" d="M460 360L461 361L460 360z"/>
<path style="fill:#00ff00; stroke:none;" d="M322 362L323 363L322 362z"/>
<path style="fill:#ffff00; stroke:none;" d="M251 364L252 365L251 364M321 364L322 365L321 364z"/>
<path style="fill:#0000ff; stroke:none;" d="M529 364L530 365L529 364z"/>
<path style="fill:#ffff00; stroke:none;" d="M685 364L686 365L685 364z"/>
<path style="fill:#7f7f7f; stroke:none;" d="M250 365L251 366L250 365z"/>
<path style="fill:#ffffff; stroke:none;" d="M321 365L322 366L321 365M449 366L450 367L449 366z"/>
<path style="fill:#7f0000; stroke:none;" d="M449 367L449 370L450 370L449 367z"/>
<path style="fill:#00ff00; stroke:none;" d="M665 367L666 368L665 367z"/>
<path style="fill:#ffffff; stroke:none;" d="M770 367L770 370L771 370L770 367z"/>
<path style="fill:#ffff00; stroke:none;" d="M688 368L689 369L688 368z"/>
<path style="fill:#00ff00; stroke:none;" d="M338 370L339 371L338 370z"/>
<path style="fill:#000000; stroke:none;" d="M536 370L538 381L544 382L536 370z"/>
<path style="fill:#00ff00; stroke:none;" d="M537 370L538 371L537 370z"/>
<path style="fill:#ffff00; stroke:none;" d="M318 371L319 372L318 371z"/>
<path style="fill:#ff0000; stroke:none;" d="M402.333 371.667L402.667 372.333L402.333 371.667z"/>
<path style="fill:#7f7f7f; stroke:none;" d="M317 373L318 374L317 373z"/>
<path style="fill:#0000ff; stroke:none;" d="M239 374L240 375L239 374z"/>
<path style="fill:#00ff00; stroke:none;" d="M238 375L239 376L238 375z"/>
<path style="fill:#ffffff; stroke:none;" d="M696 376L697 377L696 376z"/>
<path style="fill:#7f0000; stroke:none;" d="M450.667 377.333L451.333 377.667L450.667 377.333z"/>
<path style="fill:#ff0000; stroke:none;" d="M699.667 378.333L700.333 378.667L699.667 378.333z"/>
<path style="fill:#ffffff; stroke:none;" d="M313 379L314 380L313 379z"/>
<path style="fill:#ff0000; stroke:none;" d="M404.333 379.667L404.667 380.333L404.333 379.667z"/>
<path style="fill:#ffff00; stroke:none;" d="M340.333 380.667L340.667 381.333L340.333 380.667z"/>
<path style="fill:#ffffff; stroke:none;" d="M388 380L389 381L388 380z"/>
<path style="fill:#ffff00; stroke:none;" d="M388 381L388 384L389 384L388 381z"/>
<path style="fill:#aa5555; stroke:none;" d="M538 381L538 382L543 382L538 381z"/>
<path style="fill:#ff0000; stroke:none;" d="M710 381L710 382L716 382L710 381z"/>
<path style="fill:#ffff00; stroke:none;" d="M718.667 381.333L719.333 381.667L718.667 381.333z"/>
<path style="fill:#007f7f; stroke:none;" d="M309 385L310 386L309 385z"/>
<path style="fill:#ffffff; stroke:none;" d="M771 385L772 386L771 385z"/>
<path style="fill:#00ff00; stroke:none;" d="M223 386L224 387L223 386z"/>
<path style="fill:#ffff00; stroke:none;" d="M342 386L343 387L342 386z"/>
<path style="fill:#ff0000; stroke:none;" d="M389.333 387.667L389.667 388.333L389.333 387.667z"/>
<path style="fill:#ffffff; stroke:none;" d="M637 387L638 388L637 387z"/>
<path style="fill:#7f7f7f; stroke:none;" d="M634 388L635 389L634 388z"/>
<path style="fill:#000000; stroke:none;" d="M554 389L555 390L554 389z"/>
<path style="fill:#ffffff; stroke:none;" d="M640 390L641 391L640 390M661 390L662 391L661 390M303 393L304 394L303 393z"/>
<path style="fill:#ff0000; stroke:none;" d="M555 393L555 397L556 397L555 393z"/>
<path style="fill:#7f7f7f; stroke:none;" d="M647 393L648 394L647 393z"/>
<path style="fill:#ff7f7f; stroke:none;" d="M653.667 393.333L654.333 393.667L653.667 393.333z"/>
<path style="fill:#ffffff; stroke:none;" d="M391 395L392 396L391 395z"/>
<path style="fill:#00ffff; stroke:none;" d="M627 396L628 397L627 396z"/>
<path style="fill:#ffffff; stroke:none;" d="M298 398L299 399L298 398z"/>
<path style="fill:#aa5500; stroke:none;" d="M182.667 400.333L183.333 400.667L182.667 400.333M188.667 400.333L189.333 400.667L188.667 400.333z"/>
<path style="fill:#7f7f7f; stroke:none;" d="M394 401L395 402L394 401M553 401L554 402L553 401z"/>
<path style="fill:#ffffff; stroke:none;" d="M620 401L621 402L620 401M293 403L294 404L293 403z"/>
<path style="fill:#7f7f7f; stroke:none;" d="M569 403L570 404L569 403z"/>
<path style="fill:#7f0000; stroke:none;" d="M501.667 404.333L502.333 404.667L501.667 404.333z"/>
<path style="fill:#7f7f7f; stroke:none;" d="M572 405L573 406L572 405M549 406L550 407L549 406z"/>
<path style="fill:#0000ff; stroke:none;" d="M573 406L574 407L573 406z"/>
<path style="fill:#ff0000; stroke:none;" d="M720.333 406.667L720.667 407.333L720.333 406.667M288 407L288 409L290 407L288 407z"/>
<path style="fill:#ffff00; stroke:none;" d="M548 407L549 408L548 407z"/>
<path style="fill:#ff0000; stroke:none;" d="M576.667 407.333L577.333 407.667L576.667 407.333M608.667 407.333L609.333 407.667L608.667 407.333z"/>
<path style="fill:#007f7f; stroke:none;" d="M399.333 409.667L399.667 410.333L399.333 409.667z"/>
<path style="fill:#ffff00; stroke:none;" d="M584 409L585 410L584 409z"/>
<path style="fill:#ffffff; stroke:none;" d="M286 410L287 411L286 410M587 410L588 411L587 410z"/>
<path style="fill:#7f7f00; stroke:none;" d="M589.667 410.333L590.333 410.667L589.667 410.333M596 410L596 411L599 411L596 410z"/>
<path style="fill:#ffffff; stroke:none;" d="M599 410L600 411L599 410z"/>
<path style="fill:#0000ff; stroke:none;" d="M285 411L286 412L285 411z"/>
<path style="fill:#ff007f; stroke:none;" d="M363 411L364 412L363 411z"/>
<path style="fill:#ff00ff; stroke:none;" d="M502 411L503 412L502 411z"/>
<path style="fill:#ff0000; stroke:none;" d="M400 412L400 417L401 417L400 412z"/>
<path style="fill:#0000ff; stroke:none;" d="M502.333 412.667L502.667 413.333L502.333 412.667z"/>
<path style="fill:#7f7f7f; stroke:none;" d="M365 413L366 414L365 413M518.667 413.333L519.333 413.667L518.667 413.333z"/>
<path style="fill:#ffffff; stroke:none;" d="M538 413L539 414L538 413z"/>
<path style="fill:#7f007f; stroke:none;" d="M502 414L503 415L502 414z"/>
<path style="fill:#ffff00; stroke:none;" d="M524.667 414.333L525.333 414.667L524.667 414.333z"/>
<path style="fill:#00ffff; stroke:none;" d="M532 414L533 415L532 414z"/>
<path style="fill:#ff0000; stroke:none;" d="M143.667 415.333L144.333 415.667L143.667 415.333z"/>
<path style="fill:#aa5500; stroke:none;" d="M146 415L146 416L150 416L146 415z"/>
<path style="fill:#ff0000; stroke:none;" d="M151.667 415.333L152.333 415.667L151.667 415.333z"/>
<path style="fill:#0000ff; stroke:none;" d="M503 415L504 416L503 415z"/>
<path style="fill:#ffffff; stroke:none;" d="M154.667 416.333L155.333 416.667L154.667 416.333M433 416L434 417L433 416z"/>
<path style="fill:#ff0000; stroke:none;" d="M655.667 417.333L656.333 417.667L655.667 417.333M662.667 418.333L663.333 418.667L662.667 418.333z"/>
<path style="fill:#00007f; stroke:none;" d="M491.333 419.667L491.667 420.333L491.333 419.667z"/>
<path style="fill:#ffffff; stroke:none;" d="M398 421L399 422L398 421z"/>
<path style="fill:#7f7f7f; stroke:none;" d="M438 421L439 422L438 421z"/>
<path style="fill:#ff00ff; stroke:none;" d="M647 421L648 422L647 421z"/>
<path style="fill:#ffff00; stroke:none;" d="M718.333 421.667L718.667 422.333L718.333 421.667z"/>
<path style="fill:#0000ff; stroke:none;" d="M439 422L440 423L439 422z"/>
<path style="fill:#ffffff; stroke:none;" d="M770 423L770 426L771 426L770 423z"/>
<path style="fill:#7f7f7f; stroke:none;" d="M267 425L268 426L267 425z"/>
<path style="fill:#ff7f7f; stroke:none;" d="M379 427L379 428L382 428L379 427z"/>
<path style="fill:#ffff00; stroke:none;" d="M383 428L383 429L388 429L383 428z"/>
<path style="fill:#0000ff; stroke:none;" d="M453 429L454 430L453 429z"/>
<path style="fill:#ff0000; stroke:none;" d="M717.333 429.667L717.667 430.333L717.333 429.667z"/>
<path style="fill:#7f0000; stroke:none;" d="M457.667 430.333L458.333 430.667L457.667 430.333M468 430L468 431L471 431L468 430z"/>
<path style="fill:#00ffff; stroke:none;" d="M163 431L164 432L163 431z"/>
<path style="fill:#ffffff; stroke:none;" d="M258 431L259 432L258 431z"/>
<path style="fill:#ff0000; stroke:none;" d="M642.333 431.667L642.667 432.333L642.333 431.667z"/>
<path style="fill:#0000ff; stroke:none;" d="M672 431L673 432L672 431z"/>
<path style="fill:#7f7f00; stroke:none;" d="M769.333 431.667L769.667 432.333L769.333 431.667z"/>
<path style="fill:#7f0000; stroke:none;" d="M164 432L164 433L168 433L164 432z"/>
<path style="fill:#ff0000; stroke:none;" d="M168.667 432.333L169.333 432.667L168.667 432.333z"/>
<path style="fill:#0000ff; stroke:none;" d="M121 433L122 434L121 433M180 433L181 434L180 433z"/>
<path style="fill:#ff0000; stroke:none;" d="M254.667 433.333L255.333 433.667L254.667 433.333z"/>
<path style="fill:#ffff00; stroke:none;" d="M120 434L121 435L120 434z"/>
<path style="fill:#ffffff; stroke:none;" d="M521.667 434.333L522.333 434.667L521.667 434.333z"/>
<path style="fill:#7f7f7f; stroke:none;" d="M523.667 434.333L524.333 434.667L523.667 434.333z"/>
<path style="fill:#aa5500; stroke:none;" d="M525 434L525 435L529 435L525 434z"/>
<path style="fill:#0000ff; stroke:none;" d="M529 434L530 435L529 434z"/>
<path style="fill:#ff0000; stroke:none;" d="M769 434L769 438L770 438L769 434z"/>
<path style="fill:#aa5555; stroke:none;" d="M414 435L414 436L426 436L414 435z"/>
<path style="fill:#ffff7f; stroke:none;" d="M642 435L643 436L642 435z"/>
<path style="fill:#ffff00; stroke:none;" d="M333 437L334 438L333 437M532.333 437.667L532.667 438.333L532.333 437.667z"/>
<path style="fill:#7f7f7f; stroke:none;" d="M319 438L320 439L319 438M403 438L404 439L403 438M528 438L529 439L528 438z"/>
<path style="fill:#ffffff; stroke:none;" d="M244 439L245 440L244 439z"/>
<path style="fill:#7f7f7f; stroke:none;" d="M311 439L312 440L311 439z"/>
<path style="fill:#000000; stroke:none;" d="M528 439L529 440L528 439z"/>
<path style="fill:#00ffff; stroke:none;" d="M529 439L530 440L529 439z"/>
<path style="fill:#ffff00; stroke:none;" d="M241.667 440.333L242.333 440.667L241.667 440.333z"/>
<path style="fill:#7f7f7f; stroke:none;" d="M528 440L529 441L528 440z"/>
<path style="fill:#ff0000; stroke:none;" d="M179.333 441.667L179.667 442.333L179.333 441.667z"/>
<path style="fill:#ffffff; stroke:none;" d="M240 441L241 442L240 441z"/>
<path style="fill:#00ff00; stroke:none;" d="M328 441L329 442L328 441z"/>
<path style="fill:#0000ff; stroke:none;" d="M397 441L398 442L397 441z"/>
<path style="fill:#7f7f00; stroke:none;" d="M768 441L768 444L769 444L768 441z"/>
<path style="fill:#ffff00; stroke:none;" d="M715.333 442.667L715.667 443.333L715.333 442.667M235 443L236 444L235 443z"/>
<path style="fill:#ffffff; stroke:none;" d="M236 443L237 444L236 443z"/>
<path style="fill:#0000ff; stroke:none;" d="M233 444L234 445L233 444z"/>
<path style="fill:#00ffff; stroke:none;" d="M474 444L475 445L474 444z"/>
<path style="fill:#ffffff; stroke:none;" d="M768 444L769 445L768 444z"/>
<path style="fill:#ff00ff; stroke:none;" d="M328 445L329 446L328 445z"/>
<path style="fill:#7f7f7f; stroke:none;" d="M475 445L476 446L475 445M391 446L392 447L391 446M689 446L690 447L689 446z"/>
<path style="fill:#ff0000; stroke:none;" d="M714.333 446.667L714.667 447.333L714.333 446.667z"/>
<path style="fill:#aaaa00; stroke:none;" d="M196.667 447.333L197.333 447.667L196.667 447.333z"/>
<path style="fill:#d4552a; stroke:none;" d="M327 447L327 452L328 452L327 447z"/>
<path style="fill:#ff0000; stroke:none;" d="M414 447L414 448L425 448L414 447M197 448L197 449L200 449L197 448z"/>
<path style="fill:#aa5500; stroke:none;" d="M201 448L201 449L205 449L201 448z"/>
<path style="fill:#007f7f; stroke:none;" d="M315 448L316 449L315 448z"/>
<path style="fill:#000000; stroke:none;" d="M403 454L434 454C427.221 445.378 410.042 445.814 403 454z"/>
<path style="fill:#0000ff; stroke:none;" d="M315 449L315 452L316 452L315 449z"/>
<path style="fill:#ffff00; stroke:none;" d="M388 449L389 450L388 449z"/>
<path style="fill:#bf3f3f; stroke:none;" d="M477 449L477 452L478 452L477 449z"/>
<path style="fill:#ffffff; stroke:none;" d="M430 450L431 451L430 450M690 450L691 451L690 450z"/>
<path style="fill:#ff2a00; stroke:none;" d="M315 452L312 454L312 455C314.348 454.706 315.951 454.507 315 452z"/>
<path style="fill:#ffff00; stroke:none;" d="M448 452L449 453L448 452z"/>
<path style="fill:#7f007f; stroke:none;" d="M478 452L479 453L478 452z"/>
<path style="fill:#aa5555; stroke:none;" d="M766 453L766 456L767 456L766 453z"/>
<path style="fill:#ffffff; stroke:none;" d="M106 454L107 455L106 454z"/>
<path style="fill:#00ff00; stroke:none;" d="M178 454L179 455L178 454z"/>
<path style="fill:#ffff00; stroke:none;" d="M308 454L309 455L308 454z"/>
<path style="fill:#00ffff; stroke:none;" d="M328 454L329 455L328 454z"/>
<path style="fill:#007f7f; stroke:none;" d="M329 454L330 455L329 454z"/>
<path style="fill:#ff00ff; stroke:none;" d="M342 454L343 455L342 454z"/>
<path style="fill:#ffff00; stroke:none;" d="M422 454L423 455L422 454z"/>
<path style="fill:#ff0000; stroke:none;" d="M409 455L410 456L409 455M417.667 455.333L418.333 455.667L417.667 455.333z"/>
<path style="fill:#ffff7f; stroke:none;" d="M449 455L450 456L449 455z"/>
<path style="fill:#7f007f; stroke:none;" d="M480 455L481 456L480 455z"/>
<path style="fill:#7f7f00; stroke:none;" d="M690 455L690 459L691 459L690 455z"/>
<path style="fill:#7f7f7f; stroke:none;" d="M305 456L306 457L305 456z"/>
<path style="fill:#0000ff; stroke:none;" d="M304 457L305 458L304 457z"/>
<path style="fill:#ffff00; stroke:none;" d="M532.333 457.667L532.667 458.333L532.333 457.667M641 457L641 460L642 460L641 457z"/>
<path style="fill:#ff0000; stroke:none;" d="M766.333 457.667L766.667 458.333L766.333 457.667z"/>
<path style="fill:#7f7f7f; stroke:none;" d="M450 458L451 459L450 458z"/>
<path style="fill:#ff0000; stroke:none;" d="M396 459L396 460L400 460L396 459z"/>
<path style="fill:#000000; stroke:none;" d="M391 481L392 481L405 461C391.764 459.336 391 469.966 391 481z"/>
<path style="fill:#ffffff; stroke:none;" d="M693 460L694 461L693 460z"/>
<path style="fill:#7f0000; stroke:none;" d="M765.333 460.667L765.667 461.333L765.333 460.667z"/>
<path style="fill:#ffff00; stroke:none;" d="M395 461L396 462L395 461M641 461L641 465L642 465L641 461z"/>
<path style="fill:#000000; stroke:none;" d="M0 462L0 867L405 867L405 866C368.914 866 331.066 856.689 297 845.333C184.395 807.798 88.9166 723.054 39.3086 615C25.0182 583.873 13.9634 550.682 7.61111 517C5.36689 505.1 3.45567 493.04 2.16589 481C1.53677 475.127 2.25616 467.377 0 462z"/>
<path style="fill:#ffffff; stroke:none;" d="M380 462L381 463L380 462z"/>
<path style="fill:#7f7f7f; stroke:none;" d="M394 462L395 463L394 462z"/>
<path style="fill:#ff0000; stroke:none;" d="M355 463L355 467L356 467L355 463z"/>
<path style="fill:#0000ff; stroke:none;" d="M455 463L456 464L455 463z"/>
<path style="fill:#ffff00; stroke:none;" d="M532.333 463.667L532.667 464.333L532.333 463.667z"/>
<path style="fill:#000000; stroke:none;" d="M866 463C866 500.376 855.737 538.789 844 574C802.49 698.529 701.086 798.735 578 842.692C541.929 855.574 501.53 866 463 866L463 867L867 867L867 581L867 499L866 463z"/>
<path style="fill:#aa5555; stroke:none;" d="M302.333 464.667L302.667 465.333L302.333 464.667z"/>
<path style="fill:#ffffff; stroke:none;" d="M379 464L380 465L379 464z"/>
<path style="fill:#7f7f7f; stroke:none;" d="M425 465L426 466L425 465z"/>
<path style="fill:#000000; stroke:none;" d="M415 471L415 472C416.011 472.727 420.81 475.349 419.093 477.226C417.14 479.363 412.349 474.503 409.209 476.647C399.469 483.299 400.529 505.23 406.228 513.937C410.898 521.074 418.223 511.912 421.826 508.011C432.627 496.318 439.955 483.202 440 467C430.328 464.789 423.321 464.827 415 471z"/>
<path style="fill:#ffffff; stroke:none;" d="M434.667 465.333L435.333 465.667L434.667 465.333z"/>
<path style="fill:#00ffff; stroke:none;" d="M532 465L533 466L532 465M378 466L379 467L378 466z"/>
<path style="fill:#ffff00; stroke:none;" d="M422 466L423 467L422 466z"/>
<path style="fill:#7f007f; stroke:none;" d="M355 467L356 468L355 467z"/>
<path style="fill:#0000ff; stroke:none;" d="M378.333 467.667L378.667 468.333L378.333 467.667M392 467L393 468L392 467z"/>
<path style="fill:#7f7f7f; stroke:none;" d="M391.333 468.667L391.667 469.333L391.333 468.667M417.667 468.333L418.333 468.667L417.667 468.333z"/>
<path style="fill:#ff0000; stroke:none;" d="M459.333 469.667L459.667 470.333L459.333 469.667M354 470L354 473L355 473L354 470z"/>
<path style="fill:#7f007f; stroke:none;" d="M415 470L416 471L415 470z"/>
<path style="fill:#00ff00; stroke:none;" d="M98 471L99 472L98 471z"/>
<path style="fill:#7f7f7f; stroke:none;" d="M413 472L417 474L413 472z"/>
<path style="fill:#0000ff; stroke:none;" d="M300 473L301 474L300 473z"/>
<path style="fill:#ffffff; stroke:none;" d="M704 473L705 474L704 473z"/>
<path style="fill:#ffaa55; stroke:none;" d="M97.3333 474.667L97.6667 475.333L97.3333 474.667z"/>
<path style="fill:#00ffff; stroke:none;" d="M300 474L300 483L301 483L300 474z"/>
<path style="fill:#0000ff; stroke:none;" d="M360 474L361 475L360 474z"/>
<path style="fill:#aa5500; stroke:none;" d="M413 476L418 475L413 476z"/>
<path style="fill:#7f7f7f; stroke:none;" d="M418 474L415 476C417.54 479.558 420.662 478.313 420 474L418 474M409 475L410 476L409 475z"/>
<path style="fill:#ff5500; stroke:none;" d="M414 475L414 476L418 476L414 475z"/>
<path style="fill:#7f007f; stroke:none;" d="M439 475L439 478L440 478L439 475z"/>
<path style="fill:#ffffff; stroke:none;" d="M527 475L528 476L527 475M187 476L188 477L187 476M762 476L763 477L762 476z"/>
<path style="fill:#ff0000; stroke:none;" d="M377 477L377 483L378 483L377 477z"/>
<path style="fill:#7f7f7f; stroke:none;" d="M495 477L496 478L495 477M406 479L407 480L406 479z"/>
<path style="fill:#ffff00; stroke:none;" d="M497 479L498 480L497 479M438 480L439 481L438 480z"/>
<path style="fill:#ff0000; stroke:none;" d="M463.333 480.667L463.667 481.333L463.333 480.667z"/>
<path style="fill:#cc3300; stroke:none;" d="M366 482L366 486L367 486L366 482z"/>
<path style="fill:#ffff7f; stroke:none;" d="M404 482L405 483L404 482z"/>
<path style="fill:#0000ff; stroke:none;" d="M300.333 483.667L300.667 484.333L300.333 483.667M437 483L438 484L437 483z"/>
<path style="fill:#ffffff; stroke:none;" d="M450.333 484.667L450.667 485.333L450.333 484.667z"/>
<path style="fill:#000000; stroke:none;" d="M511 485C505.91 506.418 479.244 525.039 460 532.972C451.095 536.643 441.289 537.269 433 542L433 543C460.717 543.229 480.762 536.292 500.384 515.285C506.922 508.285 515.168 494.932 511 485z"/>
<path style="fill:#aa0000; stroke:none;" d="M301.333 486.667L301.667 487.333L301.333 486.667z"/>
<path style="fill:#7f0000; stroke:none;" d="M378.333 486.667L378.667 487.333L378.333 486.667z"/>
<path style="fill:#000000; stroke:none;" d="M450 486L424 524C439.189 525.909 456.22 500.828 450 486z"/>
<path style="fill:#0000ff; stroke:none;" d="M496 486L497 487L496 486z"/>
<path style="fill:#ffff00; stroke:none;" d="M366.333 487.667L366.667 488.333L366.333 487.667z"/>
<path style="fill:#00ffff; stroke:none;" d="M301 488L302 489L301 488z"/>
<path style="fill:#7f7f7f; stroke:none;" d="M302.333 489.667L302.667 490.333L302.333 489.667z"/>
<path style="fill:#bf7f00; stroke:none;" d="M365 489L365 493L366 493L365 489z"/>
<path style="fill:#0000ff; stroke:none;" d="M378 489L379 490L378 489z"/>
<path style="fill:#7f7f00; stroke:none;" d="M402 489L402 493L403 493L402 489z"/>
<path style="fill:#00ffff; stroke:none;" d="M378 490L378 493L379 493L378 490z"/>
<path style="fill:#aa5555; stroke:none;" d="M465 490L466 494L467 494L465 490z"/>
<path style="fill:#ffff00; stroke:none;" d="M509 490L510 491L509 490M303 492L304 493L303 492z"/>
<path style="fill:#ff00ff; stroke:none;" d="M447 492L448 493L447 492z"/>
<path style="fill:#7f7f7f; stroke:none;" d="M379 493L380 494L379 493z"/>
<path style="fill:#0000ff; stroke:none;" d="M614 494L615 495L614 494z"/>
<path style="fill:#7f7f7f; stroke:none;" d="M490 495L491 496L490 495z"/>
<path style="fill:#ffff00; stroke:none;" d="M430 496L431 497L430 496M91.3333 498.667L91.6667 499.333L91.3333 498.667z"/>
<path style="fill:#7f7f7f; stroke:none;" d="M429 498L430 499L429 498z"/>
<path style="fill:#ffff00; stroke:none;" d="M510 498L511 499L510 498M524 498L525 499L524 498z"/>
<path style="fill:#ffffff; stroke:none;" d="M364 499L365 500L364 499z"/>
<path style="fill:#7f7f7f; stroke:none;" d="M502 500L503 501L502 500z"/>
<path style="fill:#aa0000; stroke:none;" d="M91.3333 501.667L91.6667 502.333L91.3333 501.667z"/>
<path style="fill:#ff0000; stroke:none;" d="M448.333 501.667L448.667 502.333L448.333 501.667z"/>
<path style="fill:#ffff00; stroke:none;" d="M462 501L463 502L462 501z"/>
<path style="fill:#ffffff; stroke:none;" d="M629 501L630 502L629 501z"/>
<path style="fill:#7f7f7f; stroke:none;" d="M754 503L755 504L754 503z"/>
<path style="fill:#ff0000; stroke:none;" d="M90 504L90 507L91 507L90 504z"/>
<path style="fill:#0000ff; stroke:none;" d="M383 504L384 505L383 504z"/>
<path style="fill:#00ffff; stroke:none;" d="M424 504L425 505L424 504z"/>
<path style="fill:#ff00ff; stroke:none;" d="M440 504L441 505L440 504z"/>
<path style="fill:#7f007f; stroke:none;" d="M499 504L500 505L499 504z"/>
<path style="fill:#ffff00; stroke:none;" d="M312 505L313 506L312 505M362.333 505.667L362.667 506.333L362.333 505.667z"/>
<path style="fill:#7f7f7f; stroke:none;" d="M497 506L498 507L497 506z"/>
<path style="fill:#7f007f; stroke:none;" d="M477 507L478 508L477 507z"/>
<path style="fill:#ffff00; stroke:none;" d="M521 507L522 508L521 507z"/>
<path style="fill:#007f7f; stroke:none;" d="M385 508L386 509L385 508M476 508L477 509L476 508z"/>
<path style="fill:#0000ff; stroke:none;" d="M385.333 509.667L385.667 510.333L385.333 509.667z"/>
<path style="fill:#ff0000; stroke:none;" d="M313.333 511.667L313.667 512.333L313.333 511.667M359 511L359 514L360 514L359 511z"/>
<path style="fill:#0000ff; stroke:none;" d="M459 511L460 512L459 511M470 512L471 513L470 512z"/>
<path style="fill:#ffffff; stroke:none;" d="M633 512L634 513L633 512z"/>
<path style="fill:#0000ff; stroke:none;" d="M313 513L314 514L313 513z"/>
<path style="fill:#ffff00; stroke:none;" d="M634 513L635 514L634 513z"/>
<path style="fill:#ffffff; stroke:none;" d="M89 514L90 515L89 514z"/>
<path style="fill:#0000ff; stroke:none;" d="M208 514L209 515L208 514z"/>
<path style="fill:#ffffff; stroke:none;" d="M358 514L359 515L358 514z"/>
<path style="fill:#0000ff; stroke:none;" d="M406 514L407 515L406 514z"/>
<path style="fill:#00ffff; stroke:none;" d="M457 514L458 515L457 514z"/>
<path style="fill:#7f007f; stroke:none;" d="M489 514L490 515L489 514z"/>
<path style="fill:#ff007f; stroke:none;" d="M186 515L187 516L186 515z"/>
<path style="fill:#7f7f7f; stroke:none;" d="M466 515L467 516L466 515z"/>
<path style="fill:#ff00ff; stroke:none;" d="M636 515L637 516L636 515z"/>
<path style="fill:#7f7f7f; stroke:none;" d="M187 516L188 517L187 516z"/>
<path style="fill:#ffffff; stroke:none;" d="M637 516L638 517L637 516z"/>
<path style="fill:#00ffff; stroke:none;" d="M750 516L751 517L750 516z"/>
<path style="fill:#ffffff; stroke:none;" d="M183 517L184 518L183 517z"/>
<path style="fill:#00ff00; stroke:none;" d="M640 517L641 518L640 517z"/>
<path style="fill:#0000ff; stroke:none;" d="M455 518L456 519L455 518z"/>
<path style="fill:#00ff00; stroke:none;" d="M484 518L485 519L484 518z"/>
<path style="fill:#ff0000; stroke:none;" d="M609.667 518.333L610.333 518.667L609.667 518.333z"/>
<path style="fill:#0000ff; stroke:none;" d="M611 518L612 519L611 518z"/>
<path style="fill:#ffffff; stroke:none;" d="M749 518L750 519L749 518z"/>
<path style="fill:#ffff00; stroke:none;" d="M458 519L459 520L458 519M513 519L514 520L513 519z"/>
<path style="fill:#ffffff; stroke:none;" d="M194 520L195 521L194 520z"/>
<path style="fill:#7f7f7f; stroke:none;" d="M353 520L354 521L353 520M453 520L452 522L454 522L453 520z"/>
<path style="fill:#00ffff; stroke:none;" d="M352 521L353 522L352 521z"/>
<path style="fill:#ff0000; stroke:none;" d="M356.667 521.333L357.333 521.667L356.667 521.333z"/>
<path style="fill:#00ffff; stroke:none;" d="M393 521L394 522L393 521z"/>
<path style="fill:#ffff00; stroke:none;" d="M641.333 521.667L641.667 522.333L641.333 521.667z"/>
<path style="fill:#ff7f00; stroke:none;" d="M356 522L360 527L374 524L374 525L368 525L368 526L377 525L378 525L379 528L385 526L385 525L356 522z"/>
<path style="fill:#7f7f00; stroke:none;" d="M358 522L358 523L366 523L358 522z"/>
<path style="fill:#7f7f7f; stroke:none;" d="M435 522L436 523L435 522z"/>
<path style="fill:#ffff00; stroke:none;" d="M477 523L478 524L477 523z"/>
<path style="fill:#ffffff; stroke:none;" d="M337 524L337 525L344 525L337 524z"/>
<path style="fill:#ff5500; stroke:none;" d="M362 527C366.358 527.458 376.775 530.718 378 525L377 525L368 526L368 525L374 525C369.84 523.267 365.221 523.875 362 527z"/>
<path style="fill:#ff00ff; stroke:none;" d="M424 524L425 525L424 524z"/>
<path style="fill:#00ffff; stroke:none;" d="M425 524L426 525L425 524z"/>
<path style="fill:#007f7f; stroke:none;" d="M426 524L427 525L426 524z"/>
<path style="fill:#00ffff; stroke:none;" d="M427 524L428 525L427 524z"/>
<path style="fill:#0000ff; stroke:none;" d="M433 524L434 525L433 524z"/>
<path style="fill:#ffffff; stroke:none;" d="M590 524L591 525L590 524z"/>
<path style="fill:#7f7f7f; stroke:none;" d="M623 524L624 525L623 524z"/>
<path style="fill:#0000ff; stroke:none;" d="M359 525L360 526L359 525z"/>
<path style="fill:#7f7f7f; stroke:none;" d="M385 525L386 526L385 525z"/>
<path style="fill:#cc6633; stroke:none;" d="M426 525L426 526L433 526L426 525z"/>
<path style="fill:#ffff00; stroke:none;" d="M589 525L590 526L589 525z"/>
<path style="fill:#ffffff; stroke:none;" d="M641 525L642 526L641 525z"/>
<path style="fill:#ff0000; stroke:none;" d="M382 526L382 527L385 527L382 526z"/>
<path style="fill:#ffffff; stroke:none;" d="M177 527L178 528L177 527z"/>
<path style="fill:#7f7f7f; stroke:none;" d="M365 527L366 528L365 527z"/>
<path style="fill:#ffffff; stroke:none;" d="M379 527L379 528L382 528L379 527M746 527L747 528L746 527M369.667 528.333L370.333 528.667L369.667 528.333z"/>
<path style="fill:#ffff00; stroke:none;" d="M371 528L371 529L376 529L371 528z"/>
<path style="fill:#ffffff; stroke:none;" d="M376.667 528.333L377.333 528.667L376.667 528.333z"/>
<path style="fill:#7f0000; stroke:none;" d="M642.333 528.667L642.667 529.333L642.333 528.667z"/>
<path style="fill:#ffffff; stroke:none;" d="M176 529L177 530L176 529z"/>
<path style="fill:#0000ff; stroke:none;" d="M467 529L468 530L467 529z"/>
<path style="fill:#ff007f; stroke:none;" d="M503 529L504 530L503 529z"/>
<path style="fill:#00ffff; stroke:none;" d="M390 530L391 531L390 530z"/>
<path style="fill:#aa5500; stroke:none;" d="M464.667 530.333L465.333 530.667L464.667 530.333z"/>
<path style="fill:#00ffff; stroke:none;" d="M628 530L629 531L628 530z"/>
<path style="fill:#ffffff; stroke:none;" d="M744 530L745 531L744 530z"/>
<path style="fill:#7f007f; stroke:none;" d="M338 531L339 532L338 531z"/>
<path style="fill:#0000ff; stroke:none;" d="M388 531L389 532L388 531M461 532L462 533L461 532z"/>
<path style="fill:#ff0000; stroke:none;" d="M175.333 533.667L175.667 534.333L175.333 533.667M343.667 533.333L344.333 533.667L343.667 533.333z"/>
<path style="fill:#00ff00; stroke:none;" d="M499 533L500 534L499 533z"/>
<path style="fill:#00ffff; stroke:none;" d="M378 534L379 535L378 534z"/>
<path style="fill:#0000ff; stroke:none;" d="M379 534L380 535L379 534z"/>
<path style="fill:#ffff00; stroke:none;" d="M742 534L743 535L742 534z"/>
<path style="fill:#aa5500; stroke:none;" d="M495 535L495 537L497 535L495 535z"/>
<path style="fill:#ff0000; stroke:none;" d="M360 536L360 537L372 537L360 536z"/>
<path style="fill:#0000ff; stroke:none;" d="M450.667 536.333L451.333 536.667L450.667 536.333z"/>
<path style="fill:#7f0000; stroke:none;" d="M631.667 536.333L632.333 536.667L631.667 536.333z"/>
<path style="fill:#ffff00; stroke:none;" d="M470 537L471 538L470 537z"/>
<path style="fill:#ffffff; stroke:none;" d="M187.667 538.333L188.333 538.667L187.667 538.333z"/>
<path style="fill:#000000; stroke:none;" d="M350 547L349 547C356.609 560.373 383.742 555.177 395.335 551.57C400.678 549.908 407.218 547.712 409 542C401.452 537.336 397.423 541.246 389.91 544.066C380.17 547.721 359.27 554.023 350 547z"/>
<path style="fill:#ffff00; stroke:none;" d="M438 538L439 539L438 538z"/>
<path style="fill:#ffffff; stroke:none;" d="M439 538L440 539L439 538z"/>
<path style="fill:#ffff00; stroke:none;" d="M174.333 539.667L174.667 540.333L174.333 539.667M491 539L492 540L491 539z"/>
<path style="fill:#0000ff; stroke:none;" d="M435 540L436 541L435 540z"/>
<path style="fill:#ffffff; stroke:none;" d="M174 541L174 545L175 545L174 541z"/>
<path style="fill:#ffff00; stroke:none;" d="M461 541L462 542L461 541z"/>
<path style="fill:#ffffff; stroke:none;" d="M488 541L489 542L488 541M457 542L458 543L457 542z"/>
<path style="fill:#ffff00; stroke:none;" d="M409 543L410 544L409 543z"/>
<path style="fill:#bf7f3f; stroke:none;" d="M434 543L434 544L437 544L434 543z"/>
<path style="fill:#7f0000; stroke:none;" d="M437.667 543.333L438.333 543.667L437.667 543.333z"/>
<path style="fill:#ff0000; stroke:none;" d="M439.667 543.333L440.333 543.667L439.667 543.333M452 543L452 544L455 544L452 543M382.667 546.333L383.333 546.667L382.667 546.333z"/>
<path style="fill:#7f0000; stroke:none;" d="M243.667 547.333L244.333 547.667L243.667 547.333z"/>
<path style="fill:#ffffff; stroke:none;" d="M347 547L348 548L347 547z"/>
<path style="fill:#00ff00; stroke:none;" d="M348 547L349 548L348 547z"/>
<path style="fill:#ff0000; stroke:none;" d="M350 547L350 549L352 549L352 547L350 547z"/>
<path style="fill:#0000ff; stroke:none;" d="M378 547L379 548L378 547z"/>
<path style="fill:#ffff00; stroke:none;" d="M404 547L405 548L404 547M477 547L478 548L477 547z"/>
<path style="fill:#ff0000; stroke:none;" d="M256.667 548.333L257.333 548.667L256.667 548.333z"/>
<path style="fill:#00ffff; stroke:none;" d="M259 548L260 549L259 548z"/>
<path style="fill:#ffff00; stroke:none;" d="M375.667 548.333L376.333 548.667L375.667 548.333z"/>
<path style="fill:#ffffff; stroke:none;" d="M260 549L261 550L260 549z"/>
<path style="fill:#00ffff; stroke:none;" d="M400 549L401 550L400 549z"/>
<path style="fill:#ffffff; stroke:none;" d="M174 550L175 551L174 550z"/>
<path style="fill:#ffff00; stroke:none;" d="M351 550L352 551L351 550z"/>
<path style="fill:#ff0000; stroke:none;" d="M528.667 550.333L529.333 550.667L528.667 550.333M468.667 551.333L469.333 551.667L468.667 551.333z"/>
<path style="fill:#0000ff; stroke:none;" d="M520 551L521 552L520 551M537 551L538 552L537 551z"/>
<path style="fill:#ffff00; stroke:none;" d="M216.667 552.333L217.333 552.667L216.667 552.333z"/>
<path style="fill:#7f7f7f; stroke:none;" d="M392 552L393 553L392 552z"/>
<path style="fill:#ffffff; stroke:none;" d="M517 552L518 553L517 552z"/>
<path style="fill:#ffff00; stroke:none;" d="M518 552L519 553L518 552z"/>
<path style="fill:#7f7f00; stroke:none;" d="M358.667 553.333L359.333 553.667L358.667 553.333z"/>
<path style="fill:#ffffff; stroke:none;" d="M426 553L427 554L426 553z"/>
<path style="fill:#ff0000; stroke:none;" d="M90.3333 554.667L90.6667 555.333L90.3333 554.667z"/>
<path style="fill:#ffffff; stroke:none;" d="M336 554L337 555L336 554z"/>
<path style="fill:#ffff00; stroke:none;" d="M459.667 554.333L460.333 554.667L459.667 554.333z"/>
<path style="fill:#7f7f00; stroke:none;" d="M438 555L438 556L442 556L438 555M449 555L449 556L454 556L449 555z"/>
<path style="fill:#ffffff; stroke:none;" d="M663 556L664 557L663 556z"/>
<path style="fill:#0000ff; stroke:none;" d="M411 557L412 558L411 557z"/>
<path style="fill:#ff0000; stroke:none;" d="M565.333 557.667L565.667 558.333L565.333 557.667z"/>
<path style="fill:#ffff00; stroke:none;" d="M664 559L665 560L664 559M347 561L348 562L347 561z"/>
<path style="fill:#aa5555; stroke:none;" d="M394.667 563.333L395.333 563.667L394.667 563.333z"/>
<path style="fill:#ffffff; stroke:none;" d="M554 563L555 564L554 563z"/>
<path style="fill:#0000ff; stroke:none;" d="M363.667 566.333L364.333 566.667L363.667 566.333z"/>
<path style="fill:#ff0000; stroke:none;" d="M365 566L365 567L369 567L365 566z"/>
<path style="fill:#aa5500; stroke:none;" d="M371 566L371 567L376 567L371 566z"/>
<path style="fill:#ff0000; stroke:none;" d="M382 566L382 567L386 567L382 566z"/>
<path style="fill:#0000ff; stroke:none;" d="M646 566L647 567L646 566z"/>
<path style="fill:#ffffff; stroke:none;" d="M726 566L727 567L726 566z"/>
<path style="fill:#ff0000; stroke:none;" d="M93.3333 567.667L93.6667 568.333L93.3333 567.667z"/>
<path style="fill:#7f0000; stroke:none;" d="M493 569L493 570L496 570L493 569z"/>
<path style="fill:#ffff00; stroke:none;" d="M558 570L559 571L558 570z"/>
<path style="fill:#ffffff; stroke:none;" d="M642 570L643 571L642 570z"/>
<path style="fill:#0000ff; stroke:none;" d="M621 571L622 572L621 571z"/>
<path style="fill:#ff5500; stroke:none;" d="M425 572L428 575L425 572z"/>
<path style="fill:#ffff00; stroke:none;" d="M630 572L630 573L633 573L630 572M636.667 572.333L637.333 572.667L636.667 572.333z"/>
<path style="fill:#ff00ff; stroke:none;" d="M304 573L305 574L304 573z"/>
<path style="fill:#7f0000; stroke:none;" d="M306 573L306 574L310 574L306 573z"/>
<path style="fill:#0000ff; stroke:none;" d="M311 573L312 574L311 573z"/>
<path style="fill:#7f7f7f; stroke:none;" d="M424 573L424 575L426 575L424 573z"/>
<path style="fill:#ffff00; stroke:none;" d="M95 574L96 575L95 574z"/>
<path style="fill:#00ffff; stroke:none;" d="M302 574L303 575L302 574z"/>
<path style="fill:#ffffff; stroke:none;" d="M312 574L313 575L312 574z"/>
<path style="fill:#ff0000; stroke:none;" d="M721.333 574.667L721.667 575.333L721.333 574.667z"/>
<path style="fill:#7f7f7f; stroke:none;" d="M300 575L301 576L300 575M428 575L428 577L430 577L428 575z"/>
<path style="fill:#ffff00; stroke:none;" d="M292 576L293 577L292 576z"/>
<path style="fill:#ffffff; stroke:none;" d="M436 576L437 577L436 576z"/>
<path style="fill:#aa5500; stroke:none;" d="M437.333 576.667L437.667 577.333L437.333 576.667z"/>
<path style="fill:#7f0000; stroke:none;" d="M142.333 577.667L142.667 578.333L142.333 577.667z"/>
<path style="fill:#0000ff; stroke:none;" d="M293 577L294 578L293 577M297 577L298 578L297 577z"/>
<path style="fill:#7f7f7f; stroke:none;" d="M617 577L618 578L617 577z"/>
<path style="fill:#0000ff; stroke:none;" d="M720 577L721 578L720 577z"/>
<path style="fill:#000000; stroke:none;" d="M143 578C146.259 615.133 183.731 647.494 214 663.464C284.245 700.524 362.996 710.089 441.09 702.235C464.366 699.894 486.786 694.415 508.996 687.086C516.969 684.455 528.202 682.297 534 676C521.072 672.471 515.976 663.562 506 656C506.192 666.716 499.986 694.437 483.015 682.492C478.468 679.291 478.259 674.366 474.914 670.589C471.77 667.037 465.757 666.75 462.214 662.906C455.013 655.093 449.439 639.766 445 630L443 630C430.482 646.807 451.941 670.713 443.647 688.999C435.495 706.973 416.179 697.2 413 682L401 679C389.766 694.894 377.311 685.333 372 671C369.627 671.144 367.289 671.145 365 670.358C345 663.483 365.285 637.978 351.387 629.043C347.137 626.311 343.438 631.109 343.534 635.004C343.91 650.202 350.336 669.089 347.255 684C346.287 688.687 343.012 691.876 341 696C328.174 696.245 318.723 696.816 316 681C297.909 680.798 296.603 660.033 296 646L295 646L282 663C273.433 663.709 266.454 670.496 257 669.446C244.631 668.072 239.127 660.062 230.844 652.263C226.566 648.235 221.304 645.473 217.379 641C207.173 629.37 205 612.846 205 598C189.668 602.375 175.478 605.266 161.465 594.689C154.652 589.547 150.491 582.534 143 578z"/>
<path style="fill:#7f7f7f; stroke:none;" d="M294 578L295 579L294 578M438 578L439 579L438 578z"/>
<path style="fill:#aa5555; stroke:none;" d="M295.667 579.333L296.333 579.667L295.667 579.333z"/>
<path style="fill:#ffff00; stroke:none;" d="M146 580L147 581L146 580z"/>
<path style="fill:#7f7f7f; stroke:none;" d="M332 580L332 581L336 581L332 580M429 580L430 581L429 580z"/>
<path style="fill:#00ffff; stroke:none;" d="M321.667 581.333L322.333 581.667L321.667 581.333M342 581L343 582L342 581M407 581L408 582L407 581M422 581L423 582L422 581z"/>
<path style="fill:#7f7f7f; stroke:none;" d="M343 582L344 583L343 582M151 583L152 584L151 583z"/>
<path style="fill:#00ffff; stroke:none;" d="M417 583L418 584L417 583z"/>
<path style="fill:#ffffff; stroke:none;" d="M454 583L455 584L454 583M716 583L717 584L716 583z"/>
<path style="fill:#00ff00; stroke:none;" d="M98 584L99 585L98 584z"/>
<path style="fill:#00ffff; stroke:none;" d="M351 585L352 586L351 585z"/>
<path style="fill:#0000ff; stroke:none;" d="M411 585L412 586L411 585z"/>
<path style="fill:#007f7f; stroke:none;" d="M413 585L414 586L413 585z"/>
<path style="fill:#7f7f7f; stroke:none;" d="M99 586L100 587L99 586z"/>
<path style="fill:#7f007f; stroke:none;" d="M100 588L101 589L100 588z"/>
<path style="fill:#7f7f7f; stroke:none;" d="M357 589L358 590L357 589M361 589L362 590L361 589z"/>
<path style="fill:#ffffff; stroke:none;" d="M642 589L643 590L642 589M712 589L713 590L712 589z"/>
<path style="fill:#ff0000; stroke:none;" d="M629 590L629 595L630 595L629 590z"/>
<path style="fill:#0000ff; stroke:none;" d="M101 591L102 592L101 591z"/>
<path style="fill:#aa5500; stroke:none;" d="M361.333 591.667L361.667 592.333L361.333 591.667z"/>
<path style="fill:#ffff00; stroke:none;" d="M362 591L363 592L362 591z"/>
<path style="fill:#ffffff; stroke:none;" d="M148 594L149 595L148 594z"/>
<path style="fill:#ff0000; stroke:none;" d="M384 594L384 597L385 597L384 594z"/>
<path style="fill:#ffffff; stroke:none;" d="M161 595L162 596L161 595z"/>
<path style="fill:#7f0000; stroke:none;" d="M635.667 595.333L636.333 595.667L635.667 595.333z"/>
<path style="fill:#ff3f00; stroke:none;" d="M200 597L197 601L202 597L200 597z"/>
<path style="fill:#ffff00; stroke:none;" d="M202 598L203 599L202 598z"/>
<path style="fill:#ffffff; stroke:none;" d="M705 599L706 600L705 599z"/>
<path style="fill:#7f7f7f; stroke:none;" d="M151 601L152 602L151 601z"/>
<path style="fill:#ff0000; stroke:none;" d="M384.333 601.667L384.667 602.333L384.333 601.667z"/>
<path style="fill:#00ffff; stroke:none;" d="M182 602L183 603L182 602z"/>
<path style="fill:#007f7f; stroke:none;" d="M183 602L183 603L190 603L183 602z"/>
<path style="fill:#aa5500; stroke:none;" d="M477.667 605.333L478.333 605.667L477.667 605.333z"/>
<path style="fill:#ffffff; stroke:none;" d="M385 606L386 607L385 606z"/>
<path style="fill:#00ffff; stroke:none;" d="M376 607L377 608L376 607z"/>
<path style="fill:#7f7f7f; stroke:none;" d="M578 608L579 609L578 608z"/>
<path style="fill:#000000; stroke:none;" d="M577 609L564 627L564 628L568 641L574 640C583.826 653.175 598.254 638.379 605 629L596 626C592.043 619.328 585.121 610.106 577 609z"/>
<path style="fill:#ffffff; stroke:none;" d="M156 610L157 611L156 610z"/>
<path style="fill:#00ff00; stroke:none;" d="M381 611L382 612L381 611M386 613L387 614L386 613z"/>
<path style="fill:#ffffff; stroke:none;" d="M695 613L696 614L695 613z"/>
<path style="fill:#007f7f; stroke:none;" d="M159 614L160 615L159 614z"/>
<path style="fill:#0000ff; stroke:none;" d="M160 615L161 616L160 615z"/>
<path style="fill:#ffffff; stroke:none;" d="M574 615L575 616L574 615M595 624L596 625L595 624z"/>
<path style="fill:#0000ff; stroke:none;" d="M596 625L597 626L596 625z"/>
<path style="fill:#7f7f7f; stroke:none;" d="M347 627L347 628L351 628L347 627M448 627L448 628L452 628L448 627z"/>
<path style="fill:#000000; stroke:none;" d="M448 628L455 645C457.468 639.077 454.949 629.202 448 628z"/>
<path style="fill:#7f007f; stroke:none;" d="M352 629L353 630L352 629z"/>
<path style="fill:#7f7f7f; stroke:none;" d="M170 630L171 631L170 630z"/>
<path style="fill:#0000ff; stroke:none;" d="M566 630L567 631L566 630z"/>
<path style="fill:#7f7f7f; stroke:none;" d="M343 631L344 632L343 631z"/>
<path style="fill:#007f7f; stroke:none;" d="M453 632L454 633L453 632z"/>
<path style="fill:#aa5500; stroke:none;" d="M450.333 633.667L450.667 634.333L450.333 633.667z"/>
<path style="fill:#ffffff; stroke:none;" d="M128 634L129 635L128 634z"/>
<path style="fill:#0000ff; stroke:none;" d="M212 634L213 635L212 634z"/>
<path style="fill:#7f7f7f; stroke:none;" d="M343 635L343 639L344 639L343 635z"/>
<path style="fill:#007f7f; stroke:none;" d="M451 635L452 636L451 635z"/>
<path style="fill:#7f007f; stroke:none;" d="M175 636L176 637L175 636z"/>
<path style="fill:#7f0000; stroke:none;" d="M355.333 636.667L355.667 637.333L355.333 636.667z"/>
<path style="fill:#ff00ff; stroke:none;" d="M438 636L439 637L438 636z"/>
<path style="fill:#ffff00; stroke:none;" d="M451 636L452 637L451 636z"/>
<path style="fill:#ff0000; stroke:none;" d="M438 637L438 640L439 640L438 637z"/>
<path style="fill:#0000ff; stroke:none;" d="M455 637L456 638L455 637z"/>
<path style="fill:#7f7f7f; stroke:none;" d="M177 638L178 639L177 638M216 640L217 641L216 640z"/>
<path style="fill:#00007f; stroke:none;" d="M356.333 640.667L356.667 641.333L356.333 640.667z"/>
<path style="fill:#7f7f7f; stroke:none;" d="M453 640L454 641L453 640z"/>
<path style="fill:#ffffff; stroke:none;" d="M456 640L457 641L456 640z"/>
<path style="fill:#aa5555; stroke:none;" d="M567.333 640.667L567.667 641.333L567.333 640.667z"/>
<path style="fill:#ffffff; stroke:none;" d="M573 640L574 641L573 640z"/>
<path style="fill:#7f007f; stroke:none;" d="M673 640L674 641L673 640z"/>
<path style="fill:#00ffff; stroke:none;" d="M456 641L457 642L456 641z"/>
<path style="fill:#ff0000; stroke:none;" d="M671.667 641.333L672.333 641.667L671.667 641.333z"/>
<path style="fill:#ffff00; stroke:none;" d="M344 642L344 646L345 646L344 642z"/>
<path style="fill:#0000ff; stroke:none;" d="M356.333 642.667L356.667 643.333L356.333 642.667z"/>
<path style="fill:#ffff00; stroke:none;" d="M456 642L456 647L457 647L456 642z"/>
<path style="fill:#ff0000; stroke:none;" d="M578.667 643.333L579.333 643.667L578.667 643.333z"/>
<path style="fill:#7f7f00; stroke:none;" d="M296 644L295 646L297 646L296 644z"/>
<path style="fill:#00007f; stroke:none;" d="M356.333 644.667L356.667 645.333L356.333 644.667z"/>
<path style="fill:#ff0000; stroke:none;" d="M296 646L296 652L297 652L296 646z"/>
<path style="fill:#ffffff; stroke:none;" d="M454 647L455 648L454 647z"/>
<path style="fill:#7f7f00; stroke:none;" d="M455.667 647.333L456.333 647.667L455.667 647.333z"/>
<path style="fill:#ff0000; stroke:none;" d="M583.667 647.333L584.333 647.667L583.667 647.333M355.333 649.667L355.667 650.333L355.333 649.667z"/>
<path style="fill:#007f7f; stroke:none;" d="M440 649L441 650L440 649z"/>
<path style="fill:#7f0000; stroke:none;" d="M455.333 649.667L455.667 650.333L455.333 649.667z"/>
<path style="fill:#00ff00; stroke:none;" d="M142 650L143 651L142 650z"/>
<path style="fill:#ffffff; stroke:none;" d="M192 650L193 651L192 650z"/>
<path style="fill:#ffff00; stroke:none;" d="M440 650L441 651L440 650z"/>
<path style="fill:#ff0000; stroke:none;" d="M345 651L345 654L346 654L345 651M440.333 651.667L440.667 652.333L440.333 651.667z"/>
<path style="fill:#7f0000; stroke:none;" d="M297.333 653.667L297.667 654.333L297.333 653.667M345.333 654.667L345.667 655.333L345.333 654.667z"/>
<path style="fill:#00ffff; stroke:none;" d="M661 654L662 655L661 654z"/>
<path style="fill:#ffffff; stroke:none;" d="M288 655L289 656L288 655z"/>
<path style="fill:#ff0000; stroke:none;" d="M297.333 655.667L297.667 656.333L297.333 655.667z"/>
<path style="fill:#aa0000; stroke:none;" d="M234 656L235 657L234 656z"/>
<path style="fill:#ffffff; stroke:none;" d="M287 656L288 657L287 656z"/>
<path style="fill:#ff0000; stroke:none;" d="M345.333 656.667L345.667 657.333L345.333 656.667M441.333 656.667L441.667 657.333L441.333 656.667M458.333 656.667L458.667 657.333L458.333 656.667z"/>
<path style="fill:#0000ff; stroke:none;" d="M297 657L298 658L297 657z"/>
<path style="fill:#ffff7f; stroke:none;" d="M441 659L442 660L441 659z"/>
<path style="fill:#ff00ff; stroke:none;" d="M459 659L460 660L459 659z"/>
<path style="fill:#ff0000; stroke:none;" d="M655.333 659.667L655.667 660.333L655.333 659.667z"/>
<path style="fill:#ffffff; stroke:none;" d="M238 661L239 662L238 661z"/>
<path style="fill:#00ff00; stroke:none;" d="M460 661L461 662L460 661z"/>
<path style="fill:#ff00ff; stroke:none;" d="M212 662L213 663L212 662z"/>
<path style="fill:#ff0000; stroke:none;" d="M239.667 662.333L240.333 662.667L239.667 662.333z"/>
<path style="fill:#ff00ff; stroke:none;" d="M356 662L357 663L356 662z"/>
<path style="fill:#ffff00; stroke:none;" d="M506 662L506 665L507 665L506 662M220 666L221 667L220 666M298.333 666.667L298.667 667.333L298.333 666.667z"/>
<path style="fill:#7f7f7f; stroke:none;" d="M269.667 667.333L270.333 667.667L269.667 667.333z"/>
<path style="fill:#ffffff; stroke:none;" d="M252 668L253 669L252 668z"/>
<path style="fill:#ffff00; stroke:none;" d="M265.667 668.333L266.333 668.667L265.667 668.333z"/>
<path style="fill:#ffffff; stroke:none;" d="M360 668L361 669L360 668z"/>
<path style="fill:#ffff00; stroke:none;" d="M470 668L470 669L474 669L470 668z"/>
<path style="fill:#ffffff; stroke:none;" d="M506 668L507 669L506 668z"/>
<path style="fill:#0000ff; stroke:none;" d="M256 669L256 670L261 670L256 669z"/>
<path style="fill:#ffffff; stroke:none;" d="M519 669L520 670L519 669M370 671L371 672L370 671z"/>
<path style="fill:#7f7f7f; stroke:none;" d="M372 671L373 672L372 671z"/>
<path style="fill:#ff0000; stroke:none;" d="M444 672L444 676L445 676L444 672z"/>
<path style="fill:#ffffff; stroke:none;" d="M523 672L524 673L523 672z"/>
<path style="fill:#ff00ff; stroke:none;" d="M476 673L477 674L476 673z"/>
<path style="fill:#ffff7f; stroke:none;" d="M241 676L242 677L241 676z"/>
<path style="fill:#ffff00; stroke:none;" d="M246 678L247 679L246 678z"/>
<path style="fill:#ffffff; stroke:none;" d="M478 678L479 679L478 678M249 679L250 680L249 679M347 679L348 680L347 679M374 679L375 680L374 679z"/>
<path style="fill:#7f7f00; stroke:none;" d="M347 680L347 683L348 683L347 680z"/>
<path style="fill:#ffffff; stroke:none;" d="M499 680L500 681L499 680M445 681L445 684L446 684L445 681z"/>
<path style="fill:#7f7f7f; stroke:none;" d="M498 681L499 682L498 681M482 682L483 683L482 682z"/>
<path style="fill:#ffffff; stroke:none;" d="M522 682L523 683L522 682M178 683L179 684L178 683M347 683L348 684L347 683M483 683L484 684L483 683z"/>
<path style="fill:#0000ff; stroke:none;" d="M413 684L414 685L413 684z"/>
<path style="fill:#00007f; stroke:none;" d="M485.667 684.333L486.333 684.667L485.667 684.333z"/>
<path style="fill:#7f0000; stroke:none;" d="M491.667 684.333L492.333 684.667L491.667 684.333z"/>
<path style="fill:#ff0000; stroke:none;" d="M515.667 684.333L516.333 684.667L515.667 684.333z"/>
<path style="fill:#ffffff; stroke:none;" d="M266 685L267 686L266 685M381 686L382 687L381 686M394 686L395 687L394 686z"/>
<path style="fill:#ff0000; stroke:none;" d="M444.333 686.667L444.667 687.333L444.333 686.667z"/>
<path style="fill:#ffffff; stroke:none;" d="M346 687L347 688L346 687z"/>
<path style="fill:#00ffff; stroke:none;" d="M384 687L385 688L384 687z"/>
<path style="fill:#7f7f7f; stroke:none;" d="M385 687L386 688L385 687z"/>
<path style="fill:#007f7f; stroke:none;" d="M390 687L391 688L390 687z"/>
<path style="fill:#00ffff; stroke:none;" d="M391 687L392 688L391 687z"/>
<path style="fill:#0000ff; stroke:none;" d="M276 688L277 689L276 688z"/>
<path style="fill:#ffff00; stroke:none;" d="M279.667 689.333L280.333 689.667L279.667 689.333z"/>
<path style="fill:#ff0000; stroke:none;" d="M282.667 690.333L283.333 690.667L282.667 690.333z"/>
<path style="fill:#00ffff; stroke:none;" d="M415 690L416 691L415 690z"/>
<path style="fill:#ff0000; stroke:none;" d="M498.667 690.333L499.333 690.667L498.667 690.333z"/>
<path style="fill:#00ff00; stroke:none;" d="M344 691L345 692L344 691z"/>
<path style="fill:#ffffff; stroke:none;" d="M320 692L321 693L320 692z"/>
<path style="fill:#ffff00; stroke:none;" d="M491 692L492 693L491 692z"/>
<path style="fill:#ffffff; stroke:none;" d="M321 693L322 694L321 693M193 694L194 695L193 694M297 694L298 695L297 694M322 694L323 695L322 694M440 694L441 695L440 694z"/>
<path style="fill:#ff0000; stroke:none;" d="M302.667 695.333L303.333 695.667L302.667 695.333M438.667 695.333L439.333 695.667L438.667 695.333z"/>
<path style="fill:#ffff00; stroke:none;" d="M476 696L477 697L476 696z"/>
<path style="fill:#ffffff; stroke:none;" d="M330 697L330 698L333 698L330 697M423 697L424 698L423 697M435 697L436 698L435 697z"/>
<path style="fill:#ffff7f; stroke:none;" d="M610 697L611 698L610 697z"/>
<path style="fill:#ffffff; stroke:none;" d="M198 698L199 699L198 698M424 698L425 699L424 698z"/>
<path style="fill:#ffff00; stroke:none;" d="M425.667 698.333L426.333 698.667L425.667 698.333M431.667 698.333L432.333 698.667L431.667 698.333z"/>
<path style="fill:#ffffff; stroke:none;" d="M433 698L434 699L433 698z"/>
<path style="fill:#ff0000; stroke:none;" d="M320.667 699.333L321.333 699.667L320.667 699.333M460.667 699.333L461.333 699.667L460.667 699.333z"/>
<path style="fill:#ffff00; stroke:none;" d="M456 700L457 701L456 700M337 702L337 703L340 703L337 702z"/>
<path style="fill:#ff0000; stroke:none;" d="M439.667 702.333L440.333 702.667L439.667 702.333M344.667 703.333L345.333 703.667L344.667 703.333z"/>
<path style="fill:#0000ff; stroke:none;" d="M346 703L347 704L346 703z"/>
<path style="fill:#ffff00; stroke:none;" d="M347 703L348 704L347 703M429 703L430 704L429 703z"/>
<path style="fill:#00ffff; stroke:none;" d="M430 703L431 704L430 703z"/>
<path style="fill:#ff0000; stroke:none;" d="M431 703L431 704L434 704L431 703z"/>
<path style="fill:#7f7f7f; stroke:none;" d="M209 704L210 705L209 704z"/>
<path style="fill:#ffffff; stroke:none;" d="M417.667 704.333L418.333 704.667L417.667 704.333z"/>
<path style="fill:#ffff00; stroke:none;" d="M419.667 704.333L420.333 704.667L419.667 704.333z"/>
<path style="fill:#aa5555; stroke:none;" d="M366 705L366 706L369 706L366 705z"/>
<path style="fill:#ff7f7f; stroke:none;" d="M369.667 705.333L370.333 705.667L369.667 705.333z"/>
<path style="fill:#aa5555; stroke:none;" d="M371 705L371 706L374 706L371 705z"/>
<path style="fill:#7f0000; stroke:none;" d="M374 705L374 706L377 706L374 705z"/>
<path style="fill:#ffff00; stroke:none;" d="M377.667 705.333L378.333 705.667L377.667 705.333z"/>
<path style="fill:#7f7f00; stroke:none;" d="M379 705L379 706L382 706L379 705z"/>
<path style="fill:#ffff00; stroke:none;" d="M382 705L382 706L393 706L382 705z"/>
<path style="fill:#7f0000; stroke:none;" d="M394.667 705.333L395.333 705.667L394.667 705.333M397.667 705.333L398.333 705.667L397.667 705.333z"/>
<path style="fill:#ffffff; stroke:none;" d="M216 708L217 709L216 708M217 709L218 710L217 709z"/>
<path style="fill:#ffff00; stroke:none;" d="M218 709L219 710L218 709z"/>
<path style="fill:#ffffff; stroke:none;" d="M224 712L225 713L224 712M229 714L230 715L229 714z"/>
<path style="fill:#7f7f7f; stroke:none;" d="M231 715L232 716L231 715z"/>
<path style="fill:#ffffff; stroke:none;" d="M232 716L233 717L232 716z"/>
<path style="fill:#ffff00; stroke:none;" d="M233 716L234 717L233 716z"/>
<path style="fill:#ffffff; stroke:none;" d="M579 716L580 717L579 716z"/>
<path style="fill:#ff0000; stroke:none;" d="M574.667 718.333L575.333 718.667L574.667 718.333z"/>
<path style="fill:#7f7f7f; stroke:none;" d="M240 719L241 720L240 719z"/>
<path style="fill:#007f7f; stroke:none;" d="M250 724L251 725L250 724z"/>
<path style="fill:#7f7f00; stroke:none;" d="M255 726L258 728L255 726z"/>
<path style="fill:#00ffff; stroke:none;" d="M258 728L259 729L258 728z"/>
<path style="fill:#0000ff; stroke:none;" d="M259 728L260 729L259 728z"/>
<path style="fill:#ff0000; stroke:none;" d="M552.667 728.333L553.333 728.667L552.667 728.333z"/>
<path style="fill:#0000ff; stroke:none;" d="M554 728L555 729L554 728z"/>
<path style="fill:#ffffff; stroke:none;" d="M548 730L549 731L548 730z"/>
<path style="fill:#ffff00; stroke:none;" d="M267 731L268 732L267 731z"/>
<path style="fill:#ff0000; stroke:none;" d="M269.667 732.333L270.333 732.667L269.667 732.333M271.667 733.333L272.333 733.667L271.667 733.333z"/>
<path style="fill:#7f7f7f; stroke:none;" d="M273 733L274 734L273 733z"/>
<path style="fill:#ff0000; stroke:none;" d="M537.333 733.667L537.667 734.333L537.333 733.667z"/>
<path style="fill:#0000ff; stroke:none;" d="M540 733L541 734L540 733z"/>
<path style="fill:#7f7f7f; stroke:none;" d="M276 734L277 735L276 734z"/>
<path style="fill:#ffffff; stroke:none;" d="M278 735L279 736L278 735z"/>
<path style="fill:#aa5555; stroke:none;" d="M283.667 736.333L284.333 736.667L283.667 736.333z"/>
<path style="fill:#7f0000; stroke:none;" d="M530.667 736.333L531.333 736.667L530.667 736.333z"/>
<path style="fill:#7f7f7f; stroke:none;" d="M527 737L528 738L527 737z"/>
<path style="fill:#ffffff; stroke:none;" d="M291.667 738.333L292.333 738.667L291.667 738.333M524 738L525 739L524 738z"/>
<path style="fill:#ffff00; stroke:none;" d="M296 739L297 740L296 739z"/>
<path style="fill:#0000ff; stroke:none;" d="M300 740L301 741L300 740z"/>
<path style="fill:#ffffff; stroke:none;" d="M517 740L518 741L517 740z"/>
<path style="fill:#7f7f7f; stroke:none;" d="M306 741L307 742L306 741z"/>
<path style="fill:#ffffff; stroke:none;" d="M307 742L308 743L307 742z"/>
<path style="fill:#ffff00; stroke:none;" d="M509.667 742.333L510.333 742.667L509.667 742.333z"/>
<path style="fill:#0000ff; stroke:none;" d="M312 743L313 744L312 743z"/>
<path style="fill:#ff0000; stroke:none;" d="M504.667 743.333L505.333 743.667L504.667 743.333M501.667 744.333L502.333 744.667L501.667 744.333z"/>
<path style="fill:#00ffff; stroke:none;" d="M326 746L327 747L326 746z"/>
<path style="fill:#bf7f3f; stroke:none;" d="M482.667 747.333L483.333 747.667L482.667 747.333z"/>
<path style="fill:#ff0000; stroke:none;" d="M485 747L485 748L488 748L485 747z"/>
<path style="fill:#ffffff; stroke:none;" d="M335.667 748.333L336.333 748.667L335.667 748.333z"/>
<path style="fill:#7f7f7f; stroke:none;" d="M479 748L480 749L479 748z"/>
<path style="fill:#ff0000; stroke:none;" d="M466.667 750.333L467.333 750.667L466.667 750.333z"/>
<path style="fill:#ffff00; stroke:none;" d="M468 750L469 751L468 750z"/>
<path style="fill:#00ffff; stroke:none;" d="M469 750L470 751L469 750z"/>
<path style="fill:#ff0000; stroke:none;" d="M354.667 751.333L355.333 751.667L354.667 751.333z"/>
<path style="fill:#ffffff; stroke:none;" d="M459 751L460 752L459 751z"/>
<path style="fill:#7f7f7f; stroke:none;" d="M363 752L363 753L367 753L363 752M445.667 752.333L446.333 752.667L445.667 752.333z"/>
<path style="fill:#ffffff; stroke:none;" d="M370 753L371 754L370 753z"/>
<path style="fill:#bf3f00; stroke:none;" d="M379 753L379 754L383 754L379 753M417 753L417 754L422 754L417 753z"/>
<path style="fill:#ffff00; stroke:none;" d="M433 753L433 754L437 754L433 753z"/>
<path style="fill:#ffffff; stroke:none;" d="M440.667 753.333L441.333 753.667L440.667 753.333z"/>
<path style="fill:#0000ff; stroke:none;" d="M382 754L383 755L382 754z"/>
<path style="fill:#ff0000; stroke:none;" d="M383 754L383 755L415 755L383 754z"/>
</svg>
